<?xml version="1.0" standalone="no"?>
<!DOCTYPE svg PUBLIC "-//W3C//DTD SVG 20010904//EN"
 "http://www.w3.org/TR/2001/REC-SVG-20010904/DTD/svg10.dtd">
<svg version="1.0" xmlns="http://www.w3.org/2000/svg"
 width="750.000000pt" height="750.000000pt" viewBox="0 0 750.000000 750.000000"
 preserveAspectRatio="xMidYMid meet">
<metadata>
Created by potrace 1.14, written by Peter Selinger 2001-2017
</metadata>
<g transform="translate(0.000000,750.000000) scale(0.100000,-0.100000)"
fill="#000000" stroke="none">
<path d="M0 3750 l0 -3750 1425 0 c886 0 1425 4 1425 9 0 6 -10 17 -23 26 -19
13 -20 17 -7 25 13 9 13 10 0 11 -8 1 -20 1 -27 0 -6 -1 -15 3 -18 9 -8 13 36
64 44 52 3 -4 22 -19 41 -32 19 -13 41 -30 48 -37 8 -7 17 -11 22 -8 5 3 15
-3 22 -12 32 -43 31 -43 889 -43 l819 1 34 29 c18 17 38 30 44 30 18 0 24 20
12 35 -10 12 -9 15 3 15 8 0 17 10 21 23 5 18 8 19 16 7 8 -13 11 -13 22 -1
10 11 10 12 0 7 -17 -10 -29 24 -11 34 7 5 10 12 7 16 -4 3 -18 -6 -32 -20
-15 -17 -27 -23 -31 -16 -3 5 1 13 9 16 9 3 16 10 16 15 0 13 28 39 79 74 24
16 53 42 65 58 11 15 25 26 31 24 17 -7 70 29 67 46 -1 8 2 18 8 22 5 3 10 -2
10 -12 1 -16 2 -16 13 2 7 11 19 20 27 20 10 0 14 8 13 22 -3 25 12 31 21 11
3 -7 3 -3 0 9 -4 18 -1 21 21 18 15 -1 29 3 32 11 2 7 17 16 33 19 16 3 31 13
34 21 3 9 10 13 15 10 5 -3 16 5 25 19 9 14 23 25 30 25 20 0 28 -62 10 -76
-8 -6 -14 -21 -14 -33 l0 -22 30 21 c29 20 30 21 30 2 0 -10 3 -21 6 -25 9 -9
55 12 75 34 10 11 19 19 21 18 2 -2 16 6 31 16 24 16 30 16 38 4 8 -12 11 -12
18 1 6 8 17 24 25 35 15 19 15 18 15 -20 0 -22 -6 -51 -14 -65 -8 -14 -14 -32
-14 -40 0 -8 10 6 24 32 13 26 33 56 44 67 11 11 29 38 41 60 22 44 60 73 60
46 0 -13 12 -19 32 -16 8 1 -23 -49 -160 -259 -68 -104 -115 -182 -196 -322
l-27 -48 1066 0 1065 0 0 3750 0 3750 -3750 0 -3750 0 0 -3750z m4533 2968
c32 -17 47 -34 46 -55 0 -15 -2 -15 -11 4 -6 12 -18 24 -27 27 -9 4 -27 13
-41 21 -20 12 -21 15 -7 15 10 0 28 -5 40 -12z m201 -4 c3 -8 2 -12 -4 -9 -6
3 -10 10 -10 16 0 14 7 11 14 -7z m-2244 -50 c0 -2 -9 0 -20 6 -11 6 -20 13
-20 16 0 2 9 0 20 -6 11 -6 20 -13 20 -16z m130 -26 c0 -6 -6 -5 -15 2 -8 7
-15 14 -15 16 0 2 7 1 15 -2 8 -4 15 -11 15 -16z m2090 -18 c8 -5 11 -12 7
-16 -4 -4 -15 0 -24 9 -18 18 -8 23 17 7z m-15 -30 c3 -5 1 -10 -4 -10 -6 0
-11 5 -11 10 0 6 2 10 4 10 3 0 8 -4 11 -10z m471 -130 c5 1 10 -4 13 -11 2
-8 -2 -10 -13 -6 -10 4 -20 7 -22 7 -2 0 -4 8 -4 18 0 13 2 14 9 4 4 -8 12
-13 17 -12z m64 -88 c-27 -4 -30 -2 -36 34 l-5 29 31 -30 c30 -29 31 -30 10
-33z m-55 28 c3 -5 1 -10 -4 -10 -6 0 -11 5 -11 10 0 6 2 10 4 10 3 0 8 -4 11
-10z m115 -82 c0 -6 -7 -5 -15 2 -8 7 -15 17 -15 22 0 6 7 5 15 -2 8 -7 15
-17 15 -22z m24 -16 c3 -5 -1 -9 -9 -9 -8 0 -12 4 -9 9 3 4 7 8 9 8 2 0 6 -4
9 -8z m81 -131 c11 -14 23 -35 27 -48 10 -37 -24 -12 -47 34 -11 21 -27 47
-35 58 l-15 20 25 -20 c13 -11 34 -31 45 -44z m69 -122 c-8 -13 -21 -3 -27 22
-5 20 -5 20 13 4 11 -10 17 -22 14 -26z m31 -75 c6 -22 20 -52 30 -67 13 -21
15 -31 7 -39 -8 -8 -6 -18 8 -37 18 -26 18 -27 -1 -27 -10 0 -19 5 -19 10 0 6
-12 20 -27 33 -24 19 -26 24 -13 33 8 5 11 10 5 10 -5 0 -4 4 3 8 9 7 6 19
-13 56 -24 45 -25 71 -3 64 6 -2 16 -22 23 -44z m-3452 -199 c-3 -9 -8 -14
-10 -11 -3 3 -2 9 2 15 9 16 15 13 8 -4z m1027 -172 c0 -7 5 -13 11 -13 6 0 8
9 4 20 -4 13 -2 20 7 21 7 0 20 2 29 4 12 2 15 -3 12 -19 -4 -20 -4 -20 10 -3
15 18 32 24 22 7 -10 -16 7 -12 27 7 18 16 18 16 12 -1 -6 -16 -5 -17 16 -4
18 10 24 10 27 1 3 -8 14 -11 29 -7 15 4 24 2 24 -6 0 -13 42 -10 52 5 4 6 8
-1 8 -14 0 -13 11 -36 25 -52 l24 -30 7 26 c3 14 10 25 16 25 5 0 7 -4 4 -9
-13 -20 6 -41 30 -35 14 4 24 2 24 -4 0 -6 -8 -13 -17 -15 -15 -4 -14 -6 5
-12 16 -5 21 -13 17 -25 -3 -10 -1 -21 5 -25 5 -3 10 -2 10 2 0 5 7 18 16 29
8 10 13 14 10 7 -4 -6 -8 -31 -10 -55 -5 -52 13 -77 50 -70 l25 4 -23 17 c-13
9 -27 14 -33 13 -5 -2 -7 0 -3 4 4 4 3 14 -4 21 -10 12 -6 14 23 11 42 -4 73
22 65 55 -3 12 -3 16 0 9 5 -10 9 -10 22 0 13 11 15 10 10 -9 -4 -13 -2 -23 3
-23 5 0 9 -4 9 -10 0 -5 -7 -7 -15 -4 -19 7 -16 -20 5 -53 11 -16 17 -19 27
-11 10 8 13 5 13 -11 0 -12 6 -21 15 -21 9 0 12 6 9 18 -5 13 -4 14 4 3 7 -10
14 -11 31 -2 17 10 21 9 21 -3 0 -10 -6 -13 -15 -10 -11 5 -13 2 -9 -10 4 -9
9 -15 11 -12 3 3 11 -1 18 -7 14 -14 26 -79 13 -71 -9 6 -10 -21 -2 -54 4 -14
12 -21 20 -18 9 3 14 -1 14 -12 0 -15 2 -15 10 -2 7 11 5 18 -5 26 -17 13 -20
34 -5 34 6 0 10 -7 10 -15 0 -9 7 -18 15 -21 8 -4 15 -10 15 -16 0 -5 -4 -7
-9 -4 -13 8 -23 -26 -12 -37 7 -7 7 -15 -2 -26 -9 -11 -9 -13 0 -8 17 10 28
-13 12 -24 -11 -7 -11 -9 -1 -9 9 0 12 -10 8 -30 -3 -19 1 -36 11 -46 14 -13
13 -14 -10 -9 -15 4 -28 2 -33 -6 -5 -9 -2 -10 12 -5 15 6 17 5 7 -5 -7 -7
-13 -18 -13 -23 0 -6 4 -5 8 2 5 7 16 10 25 6 24 -9 21 -24 -4 -24 -11 0 -27
-7 -35 -15 -18 -18 -11 -19 17 -5 15 8 23 7 34 -3 14 -14 10 -27 -7 -27 -5 0
-6 5 -3 10 3 6 2 10 -3 10 -18 0 -21 -40 -4 -50 13 -8 7 -9 -23 -6 -22 3 -33
3 -24 0 12 -4 15 -18 15 -58 -1 -45 -4 -52 -18 -48 -10 2 -20 -3 -24 -12 -9
-24 -25 -19 -21 7 2 12 2 16 0 9 -4 -10 -8 -9 -19 5 -13 16 -13 15 -4 -9 7
-22 6 -26 -5 -21 -8 3 -13 9 -10 13 3 5 1 11 -5 15 -5 3 -10 0 -10 -8 0 -17
34 -49 43 -40 4 3 7 1 7 -5 0 -19 -4 -27 -12 -25 -5 2 -8 -3 -8 -11 0 -12 -5
-12 -31 1 -16 8 -33 13 -36 10 -2 -3 10 -13 27 -22 l33 -17 -29 -19 c-31 -20
-26 -26 7 -8 16 8 20 7 17 -5 -5 -23 16 -20 22 4 5 20 6 19 24 -11 14 -24 21
-28 27 -18 7 11 9 10 9 -3 0 -21 -4 -22 -31 -8 -11 7 -19 7 -19 1 0 -5 6 -12
13 -14 6 -3 2 -6 -11 -6 -15 -1 -21 3 -17 12 4 6 -1 3 -9 -7 -14 -18 -21 -15
-17 7 2 11 -14 8 -28 -5 -11 -10 -14 -10 -18 0 -3 6 -14 12 -25 12 -15 0 -18
5 -14 16 5 14 4 15 -8 5 -8 -7 -20 -10 -26 -6 -5 3 -10 1 -10 -5 0 -6 -4 -9
-9 -6 -5 3 -11 -1 -15 -9 -3 -8 -1 -17 4 -20 6 -4 10 -1 10 4 0 16 17 14 23
-2 7 -18 -11 -45 -20 -32 -5 6 -27 10 -50 10 -32 0 -47 -7 -67 -28 -26 -28
-64 -33 -58 -8 2 9 -3 9 -18 1 -19 -10 -28 -23 -12 -17 7 2 12 -6 12 -22 0 -4
-12 -6 -27 -4 -24 4 -25 3 -10 -7 9 -6 17 -18 17 -25 0 -16 -12 -20 -23 -8 -4
3 -36 7 -71 7 -54 1 -63 -1 -53 -13 10 -11 8 -13 -13 -6 -25 7 -25 7 -5 -10
l20 -17 -20 7 c-25 10 -88 7 -95 -4 -5 -7 -47 -20 -77 -23 -10 -1 -10 -4 0
-17 10 -12 9 -14 -5 -9 -10 4 -19 1 -22 -8 -4 -10 -11 -11 -31 -4 -16 6 -25 6
-25 0 0 -5 -19 -13 -42 -17 -24 -3 -37 -8 -30 -11 20 -6 13 -22 -10 -22 -36 0
-68 -11 -62 -21 3 -5 -2 -9 -11 -9 -9 0 -13 -4 -10 -10 4 -6 -5 -10 -20 -10
-15 0 -24 -4 -20 -10 3 -5 1 -10 -4 -10 -6 0 -11 -5 -11 -11 0 -20 -26 -38
-41 -28 -17 11 -32 12 -25 1 7 -11 -22 -72 -34 -72 -6 0 -8 -5 -4 -12 4 -7 9
-25 11 -40 1 -15 4 -33 5 -40 2 -8 -19 -15 -67 -20 -86 -9 -206 -26 -226 -31
-7 -2 -11 -2 -6 1 4 2 -15 24 -43 50 -27 25 -50 52 -50 59 0 7 -5 13 -11 13
-5 0 -8 4 -4 10 3 5 -7 5 -25 -1 -22 -8 -34 -8 -44 0 -7 6 -16 8 -19 4 -4 -3
-7 -1 -7 7 0 10 -3 10 -15 0 -10 -8 -15 -9 -15 -1 0 6 -8 10 -17 9 -37 -3 -64
2 -59 11 3 5 -12 11 -33 13 -23 2 -37 -1 -34 -6 4 -5 -1 -7 -10 -3 -10 3 -17
3 -17 -1 0 -6 -76 -8 -90 -3 -20 8 -81 8 -85 0 -4 -5 -14 -9 -23 -9 -15 1 -15
2 2 15 20 15 20 15 0 15 -12 0 -24 -3 -27 -7 -10 -9 -57 -10 -51 -1 3 4 -2 5
-11 2 -9 -4 -14 -13 -11 -20 3 -8 0 -11 -9 -8 -7 3 -18 -4 -25 -15 -6 -12 -16
-21 -22 -21 -9 0 -9 3 0 12 16 16 16 33 0 21 -7 -6 -22 -13 -32 -17 -17 -6
-17 -5 -5 11 8 10 19 21 24 25 6 5 6 8 -1 8 -6 0 -14 -3 -18 -7 -4 -5 -13 -8
-19 -8 -7 0 -12 -5 -12 -12 0 -7 -6 -18 -13 -25 -11 -11 -13 -10 -12 2 5 37 1
39 -37 24 -21 -9 -51 -28 -68 -42 -16 -15 -23 -19 -16 -9 15 19 9 22 -19 7
-16 -8 -18 -8 -14 5 3 8 10 13 14 10 5 -3 10 0 12 5 2 6 11 12 19 13 9 2 24
11 35 21 18 18 17 18 -4 12 -15 -5 -22 -3 -22 5 0 7 -11 2 -25 -11 -27 -25
-32 -21 -15 11 12 21 10 22 -14 13 -9 -3 -13 -10 -10 -15 3 -5 0 -9 -6 -9 -6
0 -8 -4 -5 -10 3 -6 -1 -7 -10 -4 -17 7 -8 24 24 52 9 7 10 12 3 12 -6 0 -18
-10 -26 -22 -9 -12 -16 -19 -16 -15 0 4 -8 -1 -18 -10 -11 -10 -17 -21 -15
-25 2 -5 -3 -8 -11 -8 -9 0 -16 -3 -16 -7 0 -5 -11 -9 -24 -9 -16 -1 -26 5
-29 17 -8 29 -24 23 -36 -12 -6 -18 -11 -33 -11 -35 0 -1 10 0 23 3 21 4 21 4
3 -11 -16 -13 -22 -13 -35 -3 -12 10 -13 9 -6 -3 15 -24 15 -41 0 -46 -10 -4
-11 -12 -4 -31 5 -13 7 -29 4 -34 -3 -5 -2 -17 4 -27 7 -14 5 -21 -10 -30 -25
-16 -29 -15 -29 8 0 12 7 20 17 20 15 0 15 1 0 18 -21 23 -22 56 -2 75 13 13
13 16 0 27 -8 7 -15 25 -15 41 0 23 3 27 17 22 14 -6 14 -3 -3 15 -24 26 -24
50 0 87 11 16 14 30 9 34 -14 9 -24 79 -12 86 5 4 9 11 9 16 0 6 -4 7 -10 4
-13 -8 -13 18 1 49 9 18 9 43 0 98 -7 40 -14 89 -17 108 -3 19 -9 39 -15 46
-7 8 -7 14 1 19 18 11 11 47 -10 52 -11 3 -20 10 -20 15 0 5 5 6 12 2 8 -5 9
-2 5 9 -3 10 -2 17 3 17 5 0 7 7 4 15 -4 8 -10 12 -15 9 -5 -3 -9 13 -9 36 0
30 -3 39 -13 34 -9 -6 -9 -4 1 7 6 7 12 21 12 31 0 10 6 18 14 18 8 0 13 8 12
18 0 9 5 16 11 14 7 -1 13 3 13 9 0 5 4 8 9 5 5 -4 11 -1 13 5 2 6 16 1 33
-13 27 -21 28 -21 22 -3 -7 19 -6 19 7 2 8 -11 12 -26 9 -35 -3 -12 -2 -13 4
-5 5 7 21 10 38 7 40 -7 42 -12 14 -24 -22 -9 -22 -10 6 -5 38 6 81 7 123 2
17 -2 37 0 44 4 7 4 20 3 30 -2 12 -7 18 -6 18 1 0 6 5 8 13 3 11 -7 72 -14
122 -14 10 0 24 -4 30 -8 24 -19 111 -31 160 -22 145 27 174 34 169 42 -3 5
-1 9 5 9 5 0 12 -6 15 -12 5 -10 7 -10 12 -1 3 7 11 10 17 8 40 -14 72 -12
104 6 19 11 37 18 40 15 2 -2 19 0 36 6 18 5 39 11 48 12 8 1 28 7 45 13 133
51 174 68 207 85 23 11 47 16 60 13 17 -5 19 -4 7 4 -14 10 -7 16 14 12 5 -1
6 5 3 14 -5 10 0 15 13 15 11 0 24 9 30 19 15 29 71 55 82 39 5 -8 8 -3 8 15
0 18 5 27 16 27 11 0 14 6 9 22 -6 16 -4 20 8 15 11 -4 13 0 10 14 -3 10 0 25
6 33 9 11 9 15 -1 19 -7 2 -10 8 -6 12 5 5 16 0 27 -9 11 -10 22 -13 25 -8 3
5 -3 12 -14 15 -11 3 -20 12 -20 21 0 19 11 21 29 4 8 -7 11 -8 8 -2 -3 6 4
21 17 35 13 14 22 33 20 44 -2 11 5 28 14 39 16 18 16 19 0 13 -19 -7 -45 18
-28 28 5 3 10 16 10 28 1 21 1 21 12 3 8 -15 8 -21 0 -24 -7 -2 -12 -10 -12
-18 0 -7 6 -11 14 -8 8 3 13 16 11 30 -1 13 3 24 10 24 7 0 10 14 8 37 -2 28
0 34 9 25 17 -17 28 -15 22 3 -4 9 0 15 10 15 10 0 13 5 9 17 -5 12 -2 15 9
10 13 -4 16 -1 12 19 -3 17 0 24 10 24 10 0 13 6 9 17 -5 14 -1 15 30 10 24
-4 37 -2 37 6 0 15 29 -25 30 -40z m255 27 c3 -5 1 -10 -4 -10 -6 0 -11 5 -11
10 0 6 2 10 4 10 3 0 8 -4 11 -10z m-1020 -51 c-10 -15 -25 -10 -19 6 4 8 10
12 15 9 5 -3 7 -10 4 -15z m-26 -64 c0 -5 -4 -3 -9 5 -5 8 -9 22 -9 30 0 16
17 -16 18 -35z m-338 -38 l-24 -22 19 27 c10 14 21 24 23 22 3 -3 -6 -15 -18
-27z m1659 -27 c0 -5 -4 -10 -10 -10 -5 0 -10 5 -10 10 0 6 5 10 10 10 6 0 10
-4 10 -10z m98 -29 c11 -7 11 -9 -1 -14 -9 -3 -18 1 -21 9 -6 16 2 18 22 5z
m-1398 -10 c0 -17 -18 -21 -24 -6 -3 9 0 15 9 15 8 0 15 -4 15 -9z m36 -19 c2
-9 6 -29 10 -44 4 -17 2 -28 -4 -28 -16 0 -20 -45 -5 -58 11 -10 13 -8 13 13
0 14 4 25 9 25 12 0 11 -122 -1 -137 -5 -7 -7 -16 -4 -21 8 -13 -13 -72 -26
-72 -5 0 -7 -4 -4 -9 3 -4 -3 -16 -14 -26 -22 -20 -28 -8 -7 15 6 8 -3 2 -20
-14 -18 -17 -33 -24 -33 -18 0 7 -4 12 -10 12 -5 0 -9 -3 -8 -7 6 -19 -31 -54
-60 -56 -23 -1 -28 -5 -20 -15 8 -9 7 -11 -7 -6 -13 5 -16 4 -11 -4 4 -7 2
-12 -3 -12 -6 0 -11 4 -11 9 0 5 -7 12 -16 15 -14 5 -15 4 -4 -9 7 -9 8 -15 2
-15 -25 0 -16 28 22 63 23 21 35 35 27 31 -10 -5 -13 -3 -8 9 4 11 2 14 -8 11
-7 -3 -16 -12 -19 -20 -3 -9 -10 -12 -16 -9 -7 4 -5 14 5 27 11 17 12 25 2 36
-10 13 -8 14 13 7 23 -7 23 -7 7 9 -17 18 -24 62 -8 52 5 -3 11 3 14 14 6 24
29 27 25 4 -5 -27 18 -27 30 1 13 28 6 58 -12 49 -6 -3 -4 0 5 8 9 7 14 19 12
26 -3 6 0 12 6 12 6 0 11 -13 11 -29 0 -16 7 -44 15 -62 18 -43 18 -30 0 46
-19 81 -19 116 0 109 8 -4 15 -18 15 -33 0 -15 3 -21 8 -14 8 13 7 68 -3 98
-3 11 1 7 11 -10 17 -29 17 -29 25 -7 5 12 13 22 19 22 6 0 9 -4 6 -9 -3 -5 0
-14 8 -20 11 -9 13 -4 9 31 -5 40 8 49 13 10z m494 -18 c0 -22 -16 -17 -17 6
-1 11 2 18 8 15 5 -4 9 -13 9 -21z m-37 -21 c-4 -9 -2 -14 3 -11 5 3 14 0 21
-7 10 -11 8 -18 -7 -37 -12 -13 -18 -16 -14 -7 3 9 -2 24 -11 33 -14 13 -15
19 -5 31 16 20 21 19 13 -2z m-13 -51 c0 -12 -3 -12 -15 -2 -8 7 -15 13 -15
15 0 1 7 2 15 2 8 0 15 -7 15 -15z m-597 -118 c-3 -8 -6 -14 -7 -12 -1 2 -7
11 -14 20 -11 14 -10 16 7 11 12 -3 17 -11 14 -19z m1727 6 c0 -5 -2 -10 -4
-10 -3 0 -8 5 -11 10 -3 6 -1 10 4 10 6 0 11 -4 11 -10z m-1190 -40 c0 -5 -5
-10 -11 -10 -5 0 -7 5 -4 10 3 6 8 10 11 10 2 0 4 -4 4 -10z m-638 -162 c-7
-7 -12 -8 -12 -2 0 14 12 26 19 19 2 -3 -1 -11 -7 -17z m-32 -138 c0 -5 -7 -7
-15 -4 -8 4 -15 8 -15 10 0 2 7 4 15 4 8 0 15 -4 15 -10z m1807 -52 c-3 -8 -6
-5 -6 6 -1 11 2 17 5 13 3 -3 4 -12 1 -19z m1698 -200 c29 -23 85 -95 85 -110
0 -5 -14 8 -32 27 -23 27 -37 35 -53 31 -16 -4 -24 1 -35 27 -7 18 -15 35 -18
40 -8 15 27 6 53 -15z m-1886 -113 c2 -3 -4 -6 -15 -6 -10 -1 -28 -3 -39 -4
-11 -1 -33 4 -50 12 -28 12 -25 12 35 8 35 -3 66 -8 69 -10z m-134 -13 c-3 -3
-11 0 -18 7 -9 10 -8 11 6 5 10 -3 15 -9 12 -12z m2151 -42 c15 -22 24 -43 21
-46 -5 -6 -57 65 -57 78 0 16 11 7 36 -32z m-2251 10 c-3 -5 -10 -10 -16 -10
-5 0 -9 5 -9 10 0 6 7 10 16 10 8 0 12 -4 9 -10z m-118 -76 c-3 -3 -12 -4 -19
-1 -8 3 -5 6 6 6 11 1 17 -2 13 -5z m2453 -115 c10 -35 17 -65 15 -68 -3 -2
-7 5 -10 15 -4 10 -17 47 -31 82 -28 72 -30 85 -9 55 8 -12 24 -50 35 -84z
m-2363 15 c-3 -3 -12 -4 -19 -1 -8 3 -5 6 6 6 11 1 17 -2 13 -5z m2343 -143
c0 -39 -2 -43 -14 -31 -17 18 -38 89 -30 102 3 5 15 2 25 -8 13 -12 19 -31 19
-63z m47 -3 c-3 -8 -6 -5 -6 6 -1 11 2 17 5 13 3 -3 4 -12 1 -19z m-1379 -20
c-2 -6 -10 -13 -16 -14 -7 -1 -8 0 -2 3 5 2 8 9 4 14 -3 5 0 9 6 9 7 0 10 -5
8 -12z m16 -53 c6 -18 -2 -45 -15 -45 -4 0 -6 -7 -3 -15 4 -8 1 -15 -5 -15 -6
0 -11 -4 -11 -10 0 -5 6 -10 14 -10 13 0 13 -4 0 -27 -7 -16 -14 -33 -14 -39
0 -7 -7 -14 -15 -18 -8 -3 -15 -15 -15 -26 0 -11 -9 -24 -19 -28 -11 -4 -21
-11 -22 -17 -8 -36 -13 -45 -27 -45 -13 0 -12 -3 4 -21 11 -12 14 -23 8 -27
-23 -16 -65 -132 -48 -132 14 0 33 14 28 21 -3 5 -1 9 5 9 19 0 21 -20 4 -38
-10 -10 -23 -27 -30 -38 -6 -10 -17 -18 -24 -16 -10 2 -10 0 0 -12 12 -14 15
-13 33 9 17 22 56 26 42 4 -3 -5 -9 -7 -14 -4 -5 3 -11 1 -15 -5 -6 -10 7 -14
33 -11 6 1 12 -3 12 -9 0 -6 5 -8 10 -5 6 3 10 -5 10 -18 0 -19 -4 -24 -17
-21 -21 6 -62 -21 -50 -32 4 -4 13 1 21 11 10 13 15 15 21 6 11 -19 -14 -59
-43 -66 -19 -5 -22 -9 -12 -15 7 -4 20 -5 29 -2 13 5 14 3 5 -9 -6 -8 -15 -24
-18 -36 -6 -18 -4 -22 8 -17 23 9 20 -9 -3 -23 -12 -8 -18 -20 -16 -33 2 -11
-1 -22 -6 -26 -5 -3 -8 -2 -7 3 2 4 -6 19 -16 33 -11 14 -16 18 -13 8 4 -10 2
-18 -3 -18 -6 0 -10 7 -10 16 0 8 -5 12 -11 9 -7 -5 -5 -15 5 -30 10 -15 12
-26 6 -30 -16 -10 -12 -25 5 -19 12 5 15 -2 15 -29 0 -20 -4 -39 -10 -42 -5
-3 -10 -1 -10 5 0 26 -18 -3 -24 -37 -12 -69 -12 -88 -3 -100 6 -8 1 -10 -15
-7 -20 5 -21 4 -5 -6 24 -15 22 -34 -2 -20 -14 7 -22 7 -27 -2 -4 -7 -3 -8 4
-4 7 4 12 1 12 -8 0 -9 -6 -16 -14 -16 -17 0 -31 -18 -22 -27 3 -3 12 0 21 7
18 15 16 17 19 -37 2 -35 0 -40 -12 -30 -8 6 -17 19 -21 29 -6 16 -7 16 -20
-4 -11 -18 -11 -20 2 -15 9 3 18 -1 21 -9 3 -8 2 -14 -3 -14 -4 0 -8 -7 -8
-15 0 -11 7 -14 21 -9 17 4 18 3 6 -6 -13 -9 -12 -12 5 -27 16 -13 17 -15 3
-10 -12 4 -18 1 -18 -8 0 -8 -7 -15 -16 -15 -8 0 -12 -4 -9 -10 3 -5 -3 -15
-15 -22 -23 -15 -28 -40 -5 -32 11 5 13 -1 10 -24 -3 -25 0 -30 13 -25 12 5
14 2 9 -12 -10 -25 2 -58 19 -51 17 7 18 -1 2 -18 -11 -12 -15 -10 -26 8 -7
11 -11 14 -8 5 2 -9 -1 -22 -7 -29 -9 -10 -9 -11 1 -6 6 4 12 3 12 -3 0 -5 -6
-12 -12 -15 -7 -3 -4 -4 7 -1 17 4 20 0 20 -28 0 -17 -4 -36 -10 -40 -6 -5 -3
-7 7 -3 10 3 20 1 23 -4 4 -6 -3 -10 -14 -10 -11 0 -23 -5 -27 -12 -5 -7 -2
-9 8 -6 12 5 15 -3 15 -38 0 -23 -4 -41 -9 -38 -4 3 -8 -2 -8 -11 0 -13 6 -16
25 -11 20 5 25 3 25 -11 0 -31 -12 -63 -21 -57 -5 3 -9 -2 -9 -10 0 -9 7 -16
15 -16 9 0 19 -10 24 -22 13 -35 0 -45 -15 -12 -8 19 -13 23 -13 12 -1 -10 -8
-18 -16 -18 -8 0 -15 -8 -15 -17 0 -15 2 -16 10 -3 13 21 29 -25 26 -79 l-2
-43 19 24 c10 13 16 18 13 12 -3 -6 1 -22 8 -36 12 -23 12 -25 -5 -21 -14 4
-19 0 -19 -16 0 -14 -5 -19 -16 -14 -10 4 -15 1 -14 -8 1 -8 2 -25 1 -39 -1
-20 -3 -22 -11 -10 -8 12 -10 11 -10 -7 0 -13 6 -23 13 -24 6 0 1 -5 -12 -10
-13 -5 -26 -7 -29 -4 -3 2 -11 -3 -18 -13 -13 -16 -13 -16 -14 1 0 9 -4 17 -9
17 -10 0 -8 -101 3 -118 4 -7 2 -12 -3 -12 -6 0 -11 5 -11 10 0 6 -7 10 -15
10 -8 0 -15 5 -15 10 0 6 -3 9 -7 8 -5 -1 -18 3 -30 10 -26 15 -31 5 -7 -13
14 -10 14 -15 4 -34 -6 -12 -9 -28 -7 -35 3 -7 -5 -18 -16 -25 -18 -11 -20
-11 -10 0 10 10 9 16 -4 31 -14 16 -18 28 -22 72 -1 5 -8 3 -16 -4 -8 -6 -20
-8 -27 -4 -7 4 3 -9 21 -29 21 -22 29 -37 21 -37 -10 0 -11 -3 -3 -11 9 -9 8
-18 -4 -35 -8 -13 -19 -21 -24 -18 -5 3 -9 0 -9 -6 0 -6 11 -8 24 -6 18 3 23
1 20 -9 -3 -7 7 -18 26 -26 24 -11 30 -19 27 -36 -2 -12 -1 -21 2 -18 4 2 12
-9 18 -26 10 -25 9 -31 -9 -44 -17 -11 -19 -17 -9 -28 9 -11 8 -17 -3 -26 -8
-7 -12 -20 -8 -29 5 -16 5 -16 -11 0 -10 9 -24 15 -31 12 -12 -5 -12 -9 0 -32
10 -20 11 -28 1 -34 -17 -11 -27 -10 -27 3 0 5 5 7 11 3 7 -4 10 -1 7 6 -2 7
-12 14 -21 16 -13 2 -17 -6 -18 -29 0 -18 -3 -26 -6 -19 -2 6 -9 12 -15 12 -6
0 -8 -7 -4 -15 3 -8 0 -15 -7 -15 -8 0 -7 -3 3 -9 15 -10 -49 -9 -66 1 -5 3
-15 0 -21 -7 -10 -11 -9 -15 7 -20 11 -4 20 -12 21 -18 0 -7 2 -22 3 -35 2
-18 -1 -21 -18 -16 -15 4 -13 0 9 -16 26 -19 27 -21 8 -17 -13 3 -26 1 -29 -4
-3 -5 -10 -6 -16 -3 -8 5 -9 1 -5 -10 5 -13 -2 -10 -26 9 -29 21 -33 22 -32 7
0 -9 5 -24 10 -32 34 -53 34 -57 -1 -68 -28 -8 -34 -8 -34 5 0 9 6 13 15 9 13
-4 14 -2 5 14 -6 11 -8 20 -5 20 3 0 -3 8 -12 18 -20 20 -53 24 -46 6 2 -7 -1
-15 -7 -19 -9 -6 -9 -10 1 -16 12 -8 12 -11 -1 -18 -12 -8 -11 -13 5 -31 12
-14 15 -24 8 -31 -6 -6 -16 4 -28 31 -10 22 -22 40 -26 40 -4 0 -2 -12 6 -27
9 -18 11 -32 5 -44 -6 -11 -6 -19 0 -22 6 -3 5 -4 -2 -2 -7 1 -12 8 -10 14 1
6 -2 11 -8 11 -5 0 -10 -4 -10 -10 0 -5 -7 -10 -15 -10 -9 0 -15 9 -15 25 0
22 9 30 33 26 4 0 7 4 7 10 0 6 -8 8 -18 5 -12 -4 -28 3 -45 18 -27 25 -33 22
-21 -8 3 -9 11 -13 18 -9 6 3 6 1 -1 -8 -15 -16 -17 -33 -3 -24 12 8 13 -5 1
-24 -7 -10 -12 -8 -25 10 -21 30 -21 16 0 -16 9 -13 14 -32 11 -42 -3 -14 -7
-10 -17 15 -13 33 -25 41 -33 20 -3 -7 -6 1 -6 19 -1 17 -6 35 -12 39 -8 4 -9
-1 -5 -17 4 -18 3 -17 -8 5 -7 16 -16 24 -19 19 -3 -5 0 -20 7 -34 7 -13 10
-31 8 -38 -3 -8 0 -11 7 -7 6 4 11 0 11 -9 0 -11 5 -15 14 -12 8 3 17 -1 20
-9 3 -8 15 -14 26 -14 11 0 20 -5 20 -11 0 -7 -7 -8 -17 -4 -29 12 -77 10 -69
-3 2 -4 1 -14 -4 -22 -7 -11 -10 -8 -15 12 -4 15 -4 31 -1 37 4 5 2 12 -4 16
-5 3 -10 -1 -10 -10 0 -9 -4 -14 -10 -10 -5 3 -7 12 -4 19 3 8 -1 26 -8 41
-14 26 -14 26 -13 -14 0 -22 4 -43 8 -47 4 -4 7 -17 7 -28 0 -17 -2 -18 -10
-6 -5 8 -10 11 -10 6 0 -5 -10 0 -23 12 -13 12 -27 19 -30 15 -4 -3 -7 1 -7
10 0 9 5 17 11 17 5 0 7 4 4 10 -4 6 -13 5 -25 -2 -14 -9 -16 -15 -8 -25 6 -8
8 -17 4 -20 -4 -4 13 -15 36 -24 30 -13 36 -18 21 -18 -12 -1 -27 -9 -33 -19
-10 -15 -11 -14 -6 6 3 18 2 21 -9 12 -10 -8 -14 -7 -18 7 -3 13 -5 11 -6 -6
-1 -23 -2 -24 -14 -6 -11 13 -16 15 -22 6 -4 -7 -2 -18 4 -24 19 -19 12 -31
-7 -14 -25 23 -35 21 -27 -4 5 -15 4 -19 -4 -15 -6 4 -11 1 -11 -6 0 -9 -3 -9
-10 2 -7 11 -12 12 -21 3 -17 -17 -59 5 -59 31 0 26 -15 9 -24 -26 -4 -17 -2
-28 4 -28 5 0 10 -4 10 -10 0 -18 -17 -10 -27 12 l-11 23 -10 -25 -10 -25 -11
25 -10 25 -7 -23 c-3 -12 -12 -22 -19 -22 -8 0 -17 -9 -20 -20 -7 -23 -25 -27
-25 -5 0 8 -5 15 -11 15 -5 0 -7 -4 -4 -10 10 -16 -11 -11 -25 5 -7 9 -19 14
-25 11 -8 -3 -11 3 -9 17 2 12 -2 6 -9 -14 -9 -29 -14 -34 -24 -24 -6 7 -9 16
-6 19 4 3 -1 6 -10 6 -9 0 -21 -9 -27 -21 -9 -16 -14 -18 -25 -9 -17 14 -35 5
-35 -18 0 -15 -2 -15 -10 -2 -8 12 -10 12 -10 1 0 -11 -3 -11 -17 0 -9 8 -14
9 -10 3 4 -7 1 -17 -7 -23 -11 -9 -12 -6 -9 13 6 27 -13 44 -30 27 -6 -6 -16
-11 -21 -11 -6 0 -4 6 5 13 8 7 19 21 23 31 7 19 6 19 -13 2 -19 -18 -21 -18
-27 -2 -5 14 -9 15 -15 4 -13 -19 -31 9 -26 39 2 12 0 20 -4 17 -5 -3 -9 0 -9
5 0 21 -16 11 -17 -11 -2 -18 0 -20 7 -8 5 8 10 10 10 4 0 -18 -10 -22 -38
-15 -29 8 -35 27 -18 50 9 12 8 13 -3 7 -8 -5 -17 -3 -22 5 -5 9 -7 3 -5 -18
3 -21 0 -33 -10 -37 -17 -7 -18 6 -1 23 10 10 8 15 -7 26 -18 14 -18 15 5 34
13 11 27 20 31 21 4 0 5 7 1 15 -6 17 -18 11 -18 -8 0 -6 -12 -14 -28 -18 -30
-8 -37 7 -14 30 7 8 -2 6 -23 -4 -19 -10 -32 -14 -28 -10 4 4 3 16 -3 27 -7
14 -7 23 1 33 8 10 8 15 -1 21 -6 4 -16 0 -21 -10 -8 -14 -11 -14 -24 -2 -8 8
-14 20 -14 26 0 7 -8 10 -19 7 -14 -3 -18 -1 -14 9 3 8 13 14 22 14 9 0 5 6
-13 15 -28 15 -51 12 -41 -6 3 -5 -1 -6 -10 -2 -9 3 -13 9 -8 12 4 3 8 15 7
26 0 11 8 30 18 41 19 21 19 21 -6 17 -16 -3 -26 -1 -26 7 0 7 -5 6 -15 -4
-17 -17 -20 -30 -5 -21 6 3 10 2 10 -4 0 -16 -14 -20 -26 -7 -16 17 -11 66 9
80 12 10 14 15 5 24 -26 26 -43 13 -38 -31 1 -10 -10 -29 -24 -42 -14 -13 -26
-20 -26 -15 0 5 -6 7 -13 4 -20 -7 -10 57 11 73 14 12 14 13 0 13 -11 0 -15 6
-11 20 5 19 -4 24 -44 23 -7 -1 -13 5 -13 13 0 8 4 14 8 14 5 0 9 7 9 15 0 13
-3 13 -18 -1 -10 -9 -16 -21 -13 -25 3 -5 0 -9 -6 -9 -6 0 -8 -4 -5 -10 3 -6
-1 -7 -10 -3 -9 3 -13 9 -8 12 18 12 22 39 7 45 -8 3 -14 10 -14 16 0 6 4 9 8
6 4 -3 16 11 27 30 10 19 22 34 27 34 4 0 8 7 8 15 0 8 5 15 12 15 6 0 8 3 4
8 -4 4 -18 -5 -29 -20 -20 -25 -25 -26 -47 -15 -15 8 -24 20 -22 30 2 9 -2 17
-8 17 -5 0 -10 -6 -10 -12 0 -10 -2 -10 -9 0 -6 11 -9 10 -13 -5 -6 -23 1 -43
14 -43 6 0 8 7 4 15 -4 13 -2 14 14 5 23 -12 23 -11 10 -44 -6 -17 -15 -24
-24 -20 -9 3 -15 9 -14 12 4 15 -14 52 -23 47 -5 -4 -9 -1 -9 6 0 6 -8 9 -20
6 -21 -5 -29 8 -8 15 15 5 18 45 2 45 -7 0 -10 -6 -7 -14 3 -7 0 -13 -6 -13
-12 0 -14 11 -5 34 3 9 9 14 13 12 4 -3 13 0 21 6 12 8 11 9 -4 4 -13 -5 -17
-2 -12 9 9 24 -11 17 -33 -12 -12 -14 -22 -24 -24 -22 -1 2 -10 20 -20 39 -15
30 -17 31 -12 8 3 -19 1 -26 -9 -24 -21 3 -47 28 -43 40 2 6 7 22 11 36 6 24
6 24 -9 -2 -20 -35 -29 -36 -21 -2 4 15 3 23 -3 20 -10 -7 -25 22 -22 42 1 8
-6 21 -16 29 -10 8 -13 12 -8 10 6 -3 10 5 10 18 0 13 -4 21 -9 18 -4 -3 -5 5
-2 18 6 19 5 21 -3 8 -6 -10 -12 -33 -13 -52 -2 -19 -7 -33 -11 -30 -5 3 -7
16 -4 29 2 13 0 22 -6 21 -14 -3 -19 46 -5 54 10 6 10 11 1 20 -9 9 -13 2 -19
-27 l-7 -39 -9 30 c-4 17 -6 40 -3 53 3 12 1 22 -5 22 -5 0 -10 8 -11 18 0 10
-3 12 -6 4 -7 -17 -23 -5 -23 19 0 10 -5 19 -11 19 -8 0 -10 12 -6 35 3 19 2
35 -3 35 -5 0 -12 15 -16 34 -4 25 -10 33 -21 29 -13 -5 -15 2 -12 40 3 35 1
47 -10 47 -8 0 -11 7 -8 20 3 10 -2 25 -9 31 -8 7 -12 19 -9 27 3 9 1 19 -6
22 -6 4 -12 19 -12 34 -1 14 -4 26 -7 26 -8 0 -32 111 -35 163 -2 25 -5 49 -8
54 -2 4 -4 24 -2 43 1 19 0 29 -2 22 -3 -6 -9 -10 -13 -7 -5 3 -7 12 -3 20 3
8 1 15 -4 15 -5 0 -7 19 -5 41 3 27 1 39 -6 35 -6 -3 -13 -3 -16 2 -8 13 -18
64 -18 90 0 12 -4 22 -8 22 -16 0 -16 74 0 87 13 11 11 12 -10 10 -22 -2 -25
2 -25 33 -1 41 -13 82 -28 92 -7 4 -7 11 2 22 17 21 10 82 -9 78 -10 -1 -9 3
5 14 11 9 15 18 10 20 -6 2 -9 23 -8 47 2 23 0 37 -3 30 -3 -7 -12 -9 -20 -6
-18 7 -18 43 0 43 8 0 18 5 22 12 4 7 3 8 -4 4 -8 -5 -12 1 -12 17 l0 23 73
-19 c94 -25 342 -34 458 -17 175 25 382 111 482 200 56 51 62 63 87 165 l10
40 -4 -50 c-4 -44 -3 -47 7 -22 14 35 27 35 27 0 0 -45 17 -15 54 97 21 63 33
115 29 131 -7 38 38 67 116 75 60 7 127 -9 116 -26 -3 -5 -1 -11 5 -15 11 -7
62 -103 58 -107 -2 -2 6 -16 17 -33 37 -55 60 -115 47 -124 -5 -3 0 -51 11
-106 14 -75 16 -104 8 -117 -14 -22 -14 -31 0 -22 6 4 10 -1 8 -12 -1 -11 1
-27 6 -37 4 -9 5 -27 2 -39 -6 -21 12 -108 23 -118 3 -3 7 -14 8 -25 1 -11 3
-29 5 -40 2 -11 -3 -26 -12 -33 -14 -11 -14 -11 3 -5 13 4 17 3 12 -5 -3 -6
-2 -13 4 -17 25 -15 6 -51 -65 -121 -41 -41 -75 -81 -75 -89 0 -23 -41 -85
-56 -85 -27 0 -85 29 -104 52 -15 20 -21 21 -44 10 -14 -6 -26 -16 -26 -22 0
-5 -14 -10 -31 -10 -22 0 -41 10 -65 34 -46 46 -78 51 -82 12 -2 -18 0 -26 7
-22 6 4 5 -10 -3 -32 -13 -35 -12 -43 3 -68 10 -16 43 -50 73 -76 44 -38 64
-48 92 -48 41 0 48 17 12 26 -27 6 -40 36 -23 53 16 16 27 13 27 -6 0 -13 3
-14 8 -6 6 9 20 6 57 -12 28 -13 55 -29 62 -35 8 -6 14 -6 18 0 4 6 12 7 18 3
6 -4 39 -8 72 -9 54 -1 64 -5 98 -38 21 -20 43 -33 49 -30 12 8 58 -34 58 -53
0 -8 5 -11 10 -8 6 3 13 -1 16 -9 3 -9 10 -13 15 -10 5 3 11 -1 13 -8 15 -49
17 -52 25 -39 5 7 13 11 18 8 6 -4 8 3 6 17 -3 15 0 23 10 23 9 0 12 -7 9 -19
-2 -10 1 -39 8 -63 10 -37 10 -48 -1 -62 -13 -15 -12 -15 9 -2 12 8 22 17 22
22 0 4 4 6 10 2 5 -3 7 -13 4 -23 -5 -15 -4 -15 6 1 6 9 15 15 21 12 5 -4 9
-1 9 6 0 6 8 18 17 25 16 11 20 8 35 -29 9 -23 17 -35 17 -26 1 9 8 19 16 23
19 7 20 -41 2 -65 -13 -17 -97 -42 -97 -28 0 4 -6 6 -12 4 -7 -2 -33 -7 -58
-10 -71 -10 -73 -10 -107 -28 -18 -10 -36 -18 -40 -19 -5 -2 -20 -15 -35 -30
-30 -31 -96 -40 -136 -19 -12 7 -27 9 -32 6 -6 -3 -10 -1 -10 5 0 6 -3 9 -7 7
-5 -3 -32 -8 -61 -11 -29 -3 -62 -11 -73 -16 -10 -6 -19 -8 -19 -4 0 3 -10 0
-23 -8 -34 -22 -115 -50 -126 -44 -4 3 -16 -5 -26 -18 -15 -19 -21 -21 -41
-12 -27 13 -54 65 -54 106 0 16 -4 31 -9 34 -5 3 -7 -16 -5 -42 2 -26 1 -41
-2 -34 -3 6 -12 12 -20 12 -8 0 -14 7 -14 16 0 13 -4 12 -17 -5 -18 -22 -18
-22 -18 13 0 19 4 38 8 42 10 10 9 56 -2 50 -10 -6 -25 -64 -22 -84 3 -19 -29
-84 -48 -100 -14 -10 -13 -11 4 -6 16 6 18 4 8 -6 -9 -10 -8 -16 3 -27 8 -8
14 -20 14 -26 0 -7 -5 -6 -11 3 -8 12 -9 10 -4 -7 4 -15 2 -23 -6 -23 -7 0 -9
-3 -5 -7 4 -5 14 1 22 12 12 16 16 17 23 6 5 -8 14 -10 21 -6 7 4 20 9 29 10
9 0 32 5 51 9 39 8 97 -11 130 -44 11 -11 20 -15 20 -10 0 6 5 10 11 10 6 0 8
-9 3 -22 -6 -22 -6 -22 15 2 l23 25 -6 -25 -5 -25 18 22 c14 17 30 22 67 24
27 1 66 4 88 6 l38 5 -26 24 c-29 27 -33 39 -12 31 8 -3 33 3 55 13 46 23 117
28 149 11 32 -17 27 -27 -23 -48 -25 -10 -45 -21 -45 -25 0 -12 134 -14 160
-2 22 10 48 16 120 30 8 1 49 15 90 29 91 32 182 55 192 49 16 -10 8 -44 -11
-44 -14 0 -17 -6 -14 -23 3 -14 -2 -29 -11 -36 -21 -18 -20 -47 2 -56 16 -6
16 -7 -2 -21 -11 -8 -16 -14 -10 -15 5 0 -1 -4 -14 -9 -12 -5 -25 -9 -28 -9
-3 0 -12 -8 -19 -18 -17 -23 0 -50 20 -33 7 6 17 10 21 9 21 -3 35 2 29 11 -3
6 -1 10 5 10 6 0 8 5 4 13 -6 9 -4 9 8 -1 11 -9 18 -10 23 -2 3 5 12 10 18 10
7 0 6 -4 -3 -10 -8 -5 -10 -10 -4 -10 16 0 35 25 26 35 -4 4 4 4 17 0 20 -6
23 -4 18 9 -4 10 -1 16 8 16 10 0 12 6 8 18 -6 14 -4 15 9 4 12 -10 17 -10 27
1 6 8 8 17 4 21 -4 4 1 4 12 0 14 -6 17 -4 12 9 -4 11 -2 14 8 11 7 -3 19 4
26 17 9 17 9 24 0 27 -6 2 -11 9 -11 15 0 8 4 7 12 -1 7 -7 20 -12 30 -12 17
0 17 1 1 20 -10 11 -26 20 -36 20 -15 0 -12 6 15 33 19 18 32 39 30 46 -3 8 1
12 9 9 8 -3 24 6 36 19 12 12 26 23 31 23 5 0 19 11 32 25 13 14 25 23 28 20
3 -2 13 0 24 6 25 13 42 57 28 74 -5 6 -6 16 -2 20 4 5 2 5 -4 2 -16 -9 -42
22 -27 31 15 10 9 52 -16 100 -13 25 -17 43 -11 47 16 10 12 23 -9 30 -11 3
-26 19 -33 35 -7 17 -19 30 -26 30 -9 0 -7 -8 7 -26 12 -15 21 -30 21 -35 0
-11 -60 -2 -79 13 -17 14 -76 48 -83 48 -2 0 -5 -11 -6 -26 -1 -14 2 -23 7
-20 10 7 9 -20 -2 -30 -3 -4 -14 -1 -24 7 -15 12 -16 12 -10 -3 8 -22 3 -22
-28 -2 -14 9 -25 23 -25 31 0 12 -3 13 -15 3 -8 -6 -20 -8 -27 -4 -7 4 -5 -2
5 -13 20 -23 22 -34 5 -31 -7 2 -15 -12 -18 -32 -5 -32 -7 -33 -14 -12 -4 12
-13 22 -19 22 -14 0 -45 32 -71 74 -12 18 -13 26 -5 21 8 -5 3 4 -10 18 -31
34 -43 34 -31 1 6 -14 10 -30 10 -36 0 -15 -36 33 -44 60 -4 12 -12 22 -17 22
-5 0 -9 5 -9 10 0 15 16 12 34 -6 15 -14 16 -13 14 8 -2 17 3 24 20 26 12 2
22 -2 22 -8 0 -7 -8 -9 -22 -5 -22 7 -21 5 4 -19 30 -29 48 -35 27 -10 -11 14
-10 18 6 30 11 8 14 14 6 14 -13 0 -11 65 4 116 6 18 -29 151 -52 204 -4 8 -8
20 -8 25 -1 6 -5 18 -9 27 -4 9 -6 43 -4 74 4 45 0 66 -17 98 -21 40 -25 92
-10 117 5 8 4 10 -3 5 -8 -5 -12 1 -12 14 0 12 -4 19 -8 16 -4 -2 -9 5 -9 17
-3 31 -36 97 -49 97 -6 0 -11 14 -11 31 0 28 3 30 26 25 41 -10 82 -16 133
-21 38 -3 46 -1 41 11 -3 8 -10 14 -15 14 -6 0 -24 6 -41 14 -18 8 -39 16 -47
19 -8 3 28 3 80 0 197 -11 438 43 624 139 87 46 161 111 172 152 3 15 11 23
19 20 7 -3 19 4 25 16 6 12 17 19 23 17 7 -2 18 2 25 10 11 10 17 10 38 -3 22
-15 24 -15 25 2 0 15 3 14 11 -6 l11 -25 7 25 c5 14 9 19 10 13 1 -7 4 -17 5
-23 1 -5 3 -15 4 -22 1 -9 4 -9 12 -1 8 8 9 20 1 42 -7 20 -7 33 -1 37 5 3 7
14 4 25 -4 10 -2 27 4 36 10 17 10 17 11 0 0 -10 4 -16 10 -12 5 3 6 13 3 22
-4 11 -3 14 5 9 7 -4 12 -1 12 7 0 18 42 37 68 30 11 -2 23 0 26 6 10 16 33
13 40 -4z m1370 -1 c3 -8 2 -12 -4 -9 -6 3 -10 10 -10 16 0 14 7 11 14 -7z
m-4310 -12 c3 -5 -1 -9 -9 -9 -8 0 -12 4 -9 9 3 4 7 8 9 8 2 0 6 -4 9 -8z
m2006 -21 c9 -18 7 -20 -20 -19 -35 1 -37 6 -12 24 22 17 20 17 32 -5z m-2095
-11 c-3 -5 -12 -10 -18 -10 -7 0 -6 4 3 10 19 12 23 12 15 0z m65 6 c0 -2 -8
-10 -17 -17 -16 -13 -17 -12 -4 4 13 16 21 21 21 13z m1914 -56 c8 -40 70
-106 113 -121 51 -17 121 -5 202 34 39 18 73 32 76 29 2 -2 -1 -12 -8 -23 -9
-14 -14 -16 -26 -6 -12 10 -14 9 -8 -6 5 -14 0 -19 -26 -24 -17 -4 -35 -6 -39
-5 -5 1 -7 -1 -7 -6 4 -21 -3 -29 -25 -27 -19 2 -63 -13 -46 -16 3 0 14 -2 24
-4 10 -2 31 -17 46 -34 l27 -29 -26 -7 c-14 -4 -29 -12 -33 -18 -6 -9 -8 -9
-8 1 0 7 -8 4 -20 -8 -28 -28 -25 -33 14 -28 19 2 32 0 30 -4 -3 -4 7 -8 23
-8 89 -1 -152 -65 -283 -75 -178 -14 -411 43 -427 104 -4 18 -1 19 43 14 l48
-6 -5 29 c-3 16 -10 34 -15 40 -10 14 0 44 16 45 6 0 33 1 59 1 47 1 47 18 0
18 -28 0 -37 14 -19 29 18 15 59 0 80 -31 9 -12 16 -18 16 -12 0 6 -9 19 -19
28 -19 17 -18 19 42 81 34 34 80 72 101 84 36 19 42 19 57 5 9 -8 19 -28 23
-44z m1076 16 c0 -3 -4 -8 -10 -11 -5 -3 -10 -1 -10 4 0 6 5 11 10 11 6 0 10
-2 10 -4z m1195 -46 c20 -8 25 -15 20 -29 -3 -11 -1 -22 4 -26 7 -4 8 1 4 11
-4 12 -3 15 5 10 20 -12 42 -76 41 -120 0 -46 -29 -128 -44 -127 -9 0 -55 198
-47 205 2 2 -4 18 -12 35 -27 51 -21 60 29 41z m-3275 -110 c0 -5 -4 -10 -10
-10 -5 0 -10 5 -10 10 0 6 5 10 10 10 6 0 10 -4 10 -10z m550 -79 c0 -25 -18
1 -25 34 l-6 30 15 -25 c8 -14 15 -32 16 -39z m795 28 c9 -13 3 -19 -23 -24
-22 -4 -39 25 -27 45 7 11 39 -2 50 -21z m-2555 -39 c10 -14 20 -33 22 -40 4
-20 46 -52 60 -48 7 3 22 -4 33 -15 11 -10 31 -23 45 -29 20 -7 22 -11 10 -18
-11 -7 -7 -10 15 -10 l30 -1 -25 -15 -25 -15 31 5 c39 6 76 -3 67 -17 -3 -6
-1 -7 6 -3 16 10 41 -12 41 -35 0 -11 5 -19 10 -19 6 0 10 -9 10 -20 0 -12 5
-17 13 -14 7 2 22 -4 32 -16 10 -11 22 -20 27 -20 14 0 9 20 -9 38 -16 16 -15
17 0 20 10 2 15 8 12 13 -4 5 -3 9 2 10 4 0 16 2 26 4 9 2 15 -1 11 -6 -3 -5
-10 -7 -15 -4 -5 3 -6 -1 -3 -10 6 -14 9 -14 28 3 11 11 28 22 36 24 8 3 -4 8
-27 12 -48 9 -55 21 -18 30 18 5 25 13 25 29 0 13 5 28 11 34 6 6 10 30 7 52
-2 30 0 40 9 37 8 -3 10 1 6 12 -6 15 -5 15 10 3 20 -16 20 -16 42 24 l16 30
-6 -30 c-7 -36 12 -79 52 -117 43 -41 78 -51 138 -37 95 21 122 38 143 88 11
25 22 55 24 66 2 11 13 21 24 23 24 3 97 -36 89 -48 -3 -4 3 -7 13 -6 14 1 17
-9 20 -56 2 -33 -2 -67 -10 -80 -7 -13 -11 -26 -10 -30 3 -13 -102 -84 -178
-120 -186 -88 -310 -113 -515 -105 -203 7 -321 34 -367 85 l-23 26 32 -22 c19
-14 34 -18 38 -12 3 5 1 10 -5 10 -6 0 -8 4 -5 10 7 11 -29 97 -51 121 -9 10
-17 28 -19 41 -2 12 -13 48 -24 78 -23 61 -26 74 -12 65 6 -3 6 6 1 25 -5 17
-5 28 0 25 4 -2 13 2 20 10 15 17 28 9 60 -35z m737 15 c0 -8 -10 -12 -24 -11
-24 3 -45 16 -24 16 7 0 10 4 7 9 -3 4 5 6 18 4 12 -3 23 -11 23 -18z m1071
-273 c-1 -17 -6 -29 -14 -29 -17 0 -18 29 -2 45 16 16 17 16 16 -16z m1352
-156 c0 -3 -4 -8 -10 -11 -5 -3 -10 -1 -10 4 0 6 5 11 10 11 6 0 10 -2 10 -4z
m-3150 -35 c0 -6 -4 -13 -10 -16 -5 -3 -10 1 -10 9 0 9 5 16 10 16 6 0 10 -4
10 -9z m3130 -41 c0 -5 -2 -10 -4 -10 -3 0 -8 5 -11 10 -3 6 -1 10 4 10 6 0
11 -4 11 -10z m-3110 -54 c0 -3 -4 -8 -10 -11 -5 -3 -10 -1 -10 4 0 6 5 11 10
11 6 0 10 -2 10 -4z m-30 -103 c0 -13 -4 -23 -10 -23 -5 0 -10 17 -10 38 0 27
3 33 10 22 5 -8 10 -25 10 -37z m25 -13 c3 -5 1 -10 -4 -10 -6 0 -11 5 -11 10
0 6 2 10 4 10 3 0 8 -4 11 -10z m4 -110 c0 -20 -2 -22 -9 -9 -5 8 -11 26 -13
40 -3 13 -6 29 -7 34 -1 6 -1 15 0 20 3 16 28 -58 29 -85z m3016 60 c3 -5 1
-10 -4 -10 -6 0 -11 5 -11 10 0 6 2 10 4 10 3 0 8 -4 11 -10z m365 -70 c0 -5
-2 -10 -4 -10 -3 0 -8 5 -11 10 -3 6 -1 10 4 10 6 0 11 -4 11 -10z m-32 -55
c-3 -3 -9 2 -12 12 -6 14 -5 15 5 6 7 -7 10 -15 7 -18z m777 -55 c3 -5 1 -10
-4 -10 -6 0 -11 5 -11 10 0 6 2 10 4 10 3 0 8 -4 11 -10z m39 -18 c2 -4 7 -27
9 -49 3 -23 8 -47 12 -52 3 -6 2 -11 -3 -11 -6 0 -4 -18 3 -44 8 -24 11 -47 8
-50 -4 -3 -1 -6 6 -6 8 0 10 -7 6 -20 -4 -12 -2 -26 3 -33 5 -7 12 -30 15 -52
5 -39 7 -53 27 -140 12 -53 12 -55 -4 -55 -9 0 -12 8 -8 26 3 16 -3 35 -16 53
-12 17 -17 33 -12 41 4 7 0 36 -10 66 -10 29 -16 55 -12 58 3 3 0 16 -6 29 -6
12 -14 40 -18 62 -4 22 -9 49 -11 60 -2 11 -5 36 -7 55 -1 19 -4 40 -6 45 -6
23 12 36 24 17z m-784 -12 c0 -5 -2 -10 -4 -10 -3 0 -8 5 -11 10 -3 6 -1 10 4
10 6 0 11 -4 11 -10z m-60 -10 c0 -5 -5 -10 -11 -10 -5 0 -7 5 -4 10 3 6 8 10
11 10 2 0 4 -4 4 -10z m14 -56 c9 -8 16 -20 16 -27 0 -6 7 -2 16 9 14 18 15
18 4 -4 -6 -13 -9 -29 -7 -37 3 -7 0 -18 -6 -24 -8 -8 -8 -11 0 -11 15 0 23
-38 14 -63 -7 -18 -8 -18 -14 -3 -4 10 -11 14 -17 11 -6 -3 -10 4 -10 16 0 22
0 22 21 3 19 -17 19 -13 -6 33 -15 29 -31 50 -36 47 -5 -3 -9 1 -9 8 0 7 -3
23 -6 36 -8 27 16 31 40 6z m726 -9 c0 -8 -4 -15 -9 -15 -5 0 -11 7 -15 15 -3
9 0 15 9 15 8 0 15 -7 15 -15z m-620 -10 c7 -9 8 -15 2 -15 -5 0 -12 7 -16 15
-3 8 -4 15 -2 15 2 0 9 -7 16 -15z m626 -80 c1 -19 -2 -33 -7 -29 -5 3 -9 1
-9 -5 0 -5 6 -14 13 -18 12 -8 41 -53 33 -53 -2 0 -11 -3 -19 -6 -18 -7 -27
22 -33 106 -4 53 -3 63 8 52 7 -7 13 -28 14 -47z m-745 -50 c6 -16 13 -24 16
-17 3 8 11 5 25 -10 11 -13 16 -17 12 -9 -5 10 -3 12 6 6 10 -6 12 -4 7 8 -3
10 -2 17 3 17 5 0 7 7 4 15 -9 23 4 18 17 -7 6 -13 8 -20 4 -16 -4 4 -14 -4
-21 -18 -12 -22 -12 -29 -1 -45 8 -10 16 -17 18 -15 2 2 4 -9 5 -25 1 -24 -1
-27 -13 -17 -8 6 -11 18 -8 25 3 9 0 13 -7 10 -7 -2 -12 -11 -10 -20 1 -8 -2
-18 -8 -22 -6 -4 -10 11 -10 39 0 38 -3 44 -17 39 -12 -5 -15 -2 -11 8 7 17
-32 21 -45 5 -5 -6 -5 0 -1 14 10 29 9 65 0 100 -6 21 -5 20 8 -5 8 -16 20
-43 27 -60z m-389 33 c-8 -8 -9 -4 -5 13 4 13 8 18 11 10 2 -7 -1 -18 -6 -23z
m265 -58 c-3 -11 -1 -23 4 -26 5 -3 9 2 9 10 0 9 2 16 4 16 8 0 80 -43 100
-59 16 -13 18 -14 11 -1 -6 11 -5 12 4 4 13 -12 19 -34 20 -76 1 -19 6 -28 17
-28 10 0 14 -5 10 -16 -3 -8 -2 -12 4 -9 6 4 10 -7 10 -26 0 -27 2 -30 15 -19
10 9 15 9 15 1 0 -6 -4 -11 -9 -11 -4 0 -7 -10 -6 -22 1 -13 0 -15 -2 -5 -5
21 -23 23 -23 1 0 -8 -4 -13 -9 -10 -10 6 -7 49 5 68 5 9 1 8 -11 -2 -17 -14
-18 -13 -12 3 7 19 -8 24 -17 5 -5 -10 -7 -10 -12 0 -9 19 -24 14 -24 -7 0
-11 12 -29 28 -41 15 -12 21 -19 15 -15 -7 3 -13 1 -13 -4 0 -6 5 -11 11 -11
6 0 9 -7 6 -14 -4 -11 -1 -13 11 -9 15 6 15 5 3 -10 -10 -12 -10 -17 -2 -17 8
0 10 -8 6 -20 -4 -12 -2 -20 5 -20 7 0 8 -6 2 -17 -5 -10 -7 -24 -4 -32 2 -8
1 -11 -4 -8 -5 3 -14 -5 -20 -18 -9 -19 -9 -25 2 -29 21 -8 17 -29 -5 -23 -14
3 -18 -1 -18 -19 0 -13 5 -24 11 -24 6 0 4 -5 -4 -10 -8 -5 -10 -10 -5 -10 6
0 -1 -6 -15 -13 -22 -12 -26 -11 -37 7 -7 12 -12 17 -13 12 0 -6 -7 -1 -16 10
-15 18 -15 18 -9 -4 5 -19 3 -23 -11 -20 -13 2 -20 -6 -26 -36 -5 -22 -11 -42
-15 -45 -3 -3 -3 7 1 23 9 35 -19 62 -43 43 -12 -9 -13 -9 -7 1 4 7 12 26 16
43 7 25 6 30 -5 25 -10 -3 -17 3 -21 20 -5 19 -9 22 -15 12 -6 -9 -9 -5 -9 14
0 15 5 30 10 33 6 3 10 17 10 31 0 14 3 23 8 21 4 -3 7 8 6 25 0 16 -7 33 -14
38 -18 11 -21 83 -3 76 8 -3 13 2 13 15 0 11 4 18 10 14 5 -3 3 7 -5 22 -17
31 -21 69 -6 44 12 -18 33 47 30 92 -3 50 0 69 11 62 6 -3 10 -1 10 4 0 6 5
11 11 11 6 0 9 -9 6 -20z m67 5 c3 -8 1 -15 -4 -15 -6 0 -10 7 -10 15 0 8 2
15 4 15 2 0 6 -7 10 -15z m-1323 -4 c-9 -6 -8 -11 4 -21 21 -18 19 -33 -5 -27
-15 4 -22 -1 -26 -19 -7 -25 -20 -32 -26 -12 -2 6 7 22 20 35 22 22 23 25 8
36 -14 10 -13 12 10 14 16 0 22 -2 15 -6z m-261 -27 c0 -8 -4 -12 -10 -9 -5 3
-10 10 -10 16 0 5 5 9 10 9 6 0 10 -7 10 -16z m2371 -31 c13 -16 12 -17 -3 -4
-17 13 -22 21 -14 21 2 0 10 -8 17 -17z m-2101 -24 c0 -6 -4 -7 -10 -4 -14 9
-13 5 10 -43 26 -54 26 -66 -1 -22 -12 19 -26 38 -31 41 -6 4 -5 14 3 27 13
20 29 21 29 1z m55 -26 c4 -14 2 -23 -4 -23 -6 0 -11 5 -11 10 0 18 -2 25 -12
45 -9 18 -9 18 5 5 8 -8 18 -25 22 -37z m1470 27 c3 -5 1 -10 -4 -10 -6 0 -11
5 -11 10 0 6 2 10 4 10 3 0 8 -4 11 -10z m-1165 -36 c0 -8 -5 -12 -10 -9 -6 4
-8 11 -5 16 9 14 15 11 15 -7z m667 -21 c-3 -3 -11 -2 -17 2 -9 6 -9 10 1 16
14 8 27 -7 16 -18z m-856 -14 c1 -5 3 -13 4 -19 1 -5 3 -16 4 -22 1 -9 4 -8
11 2 8 13 10 12 10 -2 0 -31 -29 -19 -38 15 -5 17 -15 31 -21 29 -7 -1 -10 2
-6 7 6 11 34 4 36 -10z m75 13 c6 -4 11 -20 10 -37 -1 -16 3 -36 8 -43 5 -7 6
-15 2 -19 -9 -9 -14 -1 -20 30 -2 15 -12 34 -20 43 -27 27 -12 47 20 26z
m-139 -34 c-3 -7 -5 -2 -5 12 0 14 2 19 5 13 2 -7 2 -19 0 -25z m311 -3 c-3
-3 -9 2 -12 12 -6 14 -5 15 5 6 7 -7 10 -15 7 -18z m-484 9 c20 -8 21 -24 2
-24 -8 0 -16 7 -20 15 -6 17 -4 18 18 9z m363 -10 c-3 -3 -12 -4 -19 -1 -8 3
-5 6 6 6 11 1 17 -2 13 -5z m124 -37 c12 -22 12 -22 -10 -3 -11 11 -21 23 -21
28 0 14 19 -1 31 -25z m-484 -19 c-3 -8 -6 -5 -6 6 -1 11 2 17 5 13 3 -3 4
-12 1 -19z m36 2 c-3 -12 -8 -19 -11 -16 -5 6 5 36 12 36 2 0 2 -9 -1 -20z
m201 -15 c7 -20 -4 -47 -18 -42 -6 2 -12 12 -14 23 -3 16 -1 17 8 4 10 -12 11
-11 7 8 -6 25 8 30 17 7z m136 -5 c6 -11 7 -20 2 -20 -6 0 -12 9 -15 20 -3 11
-3 20 -1 20 2 0 8 -9 14 -20z m-104 -48 c-12 -11 -17 7 -9 34 l8 29 3 -28 c2
-16 1 -31 -2 -35z m2114 24 c0 -3 -4 -8 -10 -11 -5 -3 -10 -1 -10 4 0 6 5 11
10 11 6 0 10 -2 10 -4z m-1266 -31 c3 -8 1 -15 -4 -15 -6 0 -10 7 -10 15 0 8
2 15 4 15 2 0 6 -7 10 -15z m-914 -22 c0 -19 -3 -24 -10 -17 -6 6 -8 18 -4 27
9 24 14 21 14 -10z m57 -5 c-3 -8 -6 -5 -6 6 -1 11 2 17 5 13 3 -3 4 -12 1
-19z m1253 11 c0 -5 4 -8 8 -5 4 2 8 -4 8 -14 0 -22 -12 -17 -26 11 -7 13 -7
19 0 19 5 0 10 -5 10 -11z m875 1 c3 -5 2 -10 -4 -10 -5 0 -13 5 -16 10 -3 6
-2 10 4 10 5 0 13 -4 16 -10z m-2215 -19 c0 -6 -4 -13 -10 -16 -5 -3 -10 1
-10 9 0 9 5 16 10 16 6 0 10 -4 10 -9z m2225 -29 c2 -26 -11 -20 -18 8 -3 13
-1 20 6 17 6 -2 11 -13 12 -25z m-885 -29 c-1 -24 -2 -26 -11 -10 -5 9 -7 22
-4 27 10 17 15 11 15 -17z m917 -80 c8 -46 10 -92 3 -88 -4 2 -10 21 -13 42
-3 21 -9 49 -13 63 -5 20 -4 23 7 13 7 -7 14 -21 16 -30z m-1327 -27 c0 -3 -4
-8 -10 -11 -5 -3 -10 -1 -10 4 0 6 5 11 10 11 6 0 10 -2 10 -4z m-1912 -47
c-3 -8 -7 -3 -11 10 -4 17 -3 21 5 13 5 -5 8 -16 6 -23z m1111 -16 c0 -11 -3
-13 -6 -5 -2 6 -9 10 -14 6 -5 -3 -9 0 -9 5 0 6 7 11 15 11 8 0 15 -8 14 -17z
m72 -37 c5 3 6 10 3 16 -4 6 2 6 15 -1 11 -7 21 -14 21 -16 0 -8 -40 -45 -48
-45 -15 0 -52 -37 -45 -44 3 -3 1 -6 -5 -6 -16 0 -24 18 -10 23 10 3 9 8 -2
22 -14 17 -13 18 4 12 15 -6 17 -4 13 13 -3 11 0 18 7 17 6 -1 10 7 8 17 -3
18 -2 18 13 2 9 -9 21 -14 26 -10z m969 14 c0 -5 -2 -10 -4 -10 -3 0 -8 5 -11
10 -3 6 -1 10 4 10 6 0 11 -4 11 -10z m17 -40 c-3 -11 -1 -20 4 -20 5 0 9 -10
9 -22 l0 -22 -16 22 c-9 13 -13 31 -9 42 8 26 19 26 12 0z m1122 -42 c15 -54
27 -88 35 -109 5 -11 1 -19 -10 -23 -12 -4 -15 -2 -10 9 3 8 0 15 -5 15 -6 0
-9 9 -6 20 3 11 1 20 -5 20 -5 0 -8 6 -5 13 2 6 -4 31 -15 55 -22 52 -23 69
-5 53 8 -6 19 -30 26 -53z m-1269 18 c0 -3 -4 -8 -10 -11 -5 -3 -10 -1 -10 4
0 6 5 11 10 11 6 0 10 -2 10 -4z m60 -22 c0 -14 -4 -23 -9 -20 -5 3 -7 15 -4
26 7 28 13 25 13 -6z m-1055 6 c3 -5 1 -10 -4 -10 -6 0 -11 5 -11 10 0 6 2 10
4 10 3 0 8 -4 11 -10z m65 -30 c0 -5 -2 -10 -4 -10 -3 0 -8 5 -11 10 -3 6 -1
10 4 10 6 0 11 -4 11 -10z m964 -6 c3 -8 2 -12 -4 -9 -6 3 -10 10 -10 16 0 14
7 11 14 -7z m-2797 -46 c-3 -8 -6 -5 -6 6 -1 11 2 17 5 13 3 -3 4 -12 1 -19z
m1743 -22 c0 -8 -11 -13 -27 -13 l-26 0 24 13 c30 17 29 17 29 0z m2357 -102
c-10 -11 -38 18 -33 33 3 7 0 13 -7 13 -8 0 -6 4 3 10 12 7 18 3 29 -20 8 -16
12 -33 8 -36z m-1612 36 c3 -5 1 -10 -4 -10 -6 0 -11 5 -11 10 0 6 2 10 4 10
3 0 8 -4 11 -10z m-5 -31 c12 -22 2 -25 -25 -6 -10 8 -15 19 -11 26 9 14 22 7
36 -20z m-20 -39 c0 -5 -2 -10 -4 -10 -3 0 -8 5 -11 10 -3 6 -1 10 4 10 6 0
11 -4 11 -10z m1687 -62 c22 -35 69 -97 105 -138 36 -41 70 -84 76 -96 9 -18
8 -20 -10 -19 -12 1 -24 7 -26 13 -2 7 -11 12 -20 12 -13 0 -14 2 -4 9 11 7
10 10 -3 15 -9 3 -20 4 -25 1 -4 -3 -7 1 -6 8 0 6 -2 12 -5 12 -12 0 -49 38
-49 50 0 7 -7 18 -15 25 -18 15 -20 35 -3 24 19 -12 -4 19 -29 39 -23 18 -33
44 -12 31 6 -3 4 8 -5 24 -15 30 -20 52 -12 52 2 0 21 -28 43 -62z m-1559 -22
c-7 -8 -17 -12 -22 -9 -4 3 -2 9 5 14 22 13 31 11 17 -5z m153 -13 c13 -16 12
-17 -3 -4 -17 13 -22 21 -14 21 2 0 10 -8 17 -17z m-81 3 c0 -2 -7 -9 -15 -16
-13 -11 -14 -10 -9 4 5 14 24 23 24 12z m13 -56 c3 -11 1 -23 -4 -26 -5 -3 -9
6 -9 20 0 31 6 34 13 6z m-2383 -53 c0 -5 -4 -5 -10 -2 -5 3 -10 14 -10 23 0
15 2 15 10 2 5 -8 10 -19 10 -23z m150 -67 c-6 -11 -13 -20 -16 -20 -2 0 0 9
6 20 6 11 13 20 16 20 2 0 0 -9 -6 -20z m1997 -46 c-3 -3 -12 -4 -19 -1 -8 3
-5 6 6 6 11 1 17 -2 13 -5z m-1921 -95 c0 -8 -2 -18 -4 -23 -5 -10 -22 14 -22
32 0 18 25 9 26 -9z m1904 -15 c0 -2 -9 -4 -20 -4 -11 0 -20 4 -20 9 0 5 9 7
20 4 11 -3 20 -7 20 -9z m-1800 2 c0 -3 -4 -8 -10 -11 -5 -3 -10 -1 -10 4 0 6
5 11 10 11 6 0 10 -2 10 -4z m-22 -128 c-14 -29 -23 -21 -21 19 1 21 2 40 2
43 1 3 7 -6 15 -20 8 -16 10 -31 4 -42z m-53 -59 c6 -11 4 -11 -8 1 -16 15
-21 34 -17 60 1 8 5 1 9 -16 4 -17 11 -37 16 -45z m85 51 c0 -5 -2 -10 -4 -10
-3 0 -8 5 -11 10 -3 6 -1 10 4 10 6 0 11 -4 11 -10z m1479 -16 c3 -16 1 -17
-13 -5 -19 16 -21 34 -3 29 6 -3 14 -13 16 -24z m-1459 -28 c0 -3 -4 -8 -10
-11 -5 -3 -10 -1 -10 4 0 6 5 11 10 11 6 0 10 -2 10 -4z m10 -40 c0 -2 -11 -6
-25 -8 -13 -3 -22 -1 -19 3 5 9 44 13 44 5z m1330 -53 c0 -9 5 -11 13 -7 8 5
7 2 -2 -9 -14 -18 -18 -19 -21 -2 -1 6 -6 18 -11 27 -7 14 -6 16 6 12 8 -4 15
-13 15 -21z m157 -25 c-3 -7 -5 -2 -5 12 0 14 2 19 5 13 2 -7 2 -19 0 -25z
m-683 -184 c3 -8 2 -12 -4 -9 -6 3 -10 10 -10 16 0 14 7 11 14 -7z m2037 -27
c-10 -9 -11 -8 -5 6 3 10 9 15 12 12 3 -3 0 -11 -7 -18z m749 -35 c0 -5 -6
-17 -14 -28 -14 -19 -14 -19 -13 1 2 23 27 48 27 27z m-614 -49 c-10 -10 -19
5 -10 18 6 11 8 11 12 0 2 -7 1 -15 -2 -18z m74 23 c0 -3 -4 -8 -10 -11 -5 -3
-10 -1 -10 4 0 6 5 11 10 11 6 0 10 -2 10 -4z m110 -33 c-1 -20 -16 -31 -30
-22 -13 8 -13 10 0 19 18 12 30 13 30 3z m-170 -21 c0 -5 -7 -9 -15 -9 -8 0
-12 4 -9 9 3 4 9 8 15 8 5 0 9 -4 9 -8z m-71 -71 c0 -14 -3 -20 -6 -13 -2 6
-9 12 -15 12 -6 0 -8 -7 -5 -15 7 -18 -11 -30 -38 -27 -15 2 -21 -3 -22 -19
-2 -25 -19 -46 -30 -36 -4 4 -1 13 5 19 15 15 16 38 2 38 -5 0 -10 -6 -10 -14
0 -8 -11 -13 -30 -12 -33 1 -42 16 -10 16 11 0 20 7 20 15 0 8 -4 15 -10 15
-5 0 -10 5 -10 11 0 7 9 9 24 5 19 -5 30 1 48 23 13 15 31 30 39 33 21 8 49
-22 48 -51z m41 35 c0 -3 -4 -8 -10 -11 -5 -3 -10 -1 -10 4 0 6 5 11 10 11 6
0 10 -2 10 -4z m-206 -137 c-16 -10 -31 -16 -33 -13 -8 8 42 43 52 37 5 -3 -4
-14 -19 -24z m-2274 -79 c0 -5 -2 -10 -4 -10 -3 0 -8 5 -11 10 -3 6 -1 10 4
10 6 0 11 -4 11 -10z m2210 -20 c0 -5 -8 -10 -17 -10 -15 0 -16 2 -3 10 19 12
20 12 20 0z m-2155 -71 c-5 -15 -4 -19 5 -14 11 7 50 -21 50 -36 0 -13 -77 30
-84 46 -3 8 3 16 12 18 9 3 18 5 20 6 2 0 0 -9 -3 -20z m-25 -59 c0 -5 -4 -10
-9 -10 -6 0 -13 5 -16 10 -3 6 1 10 9 10 9 0 16 -4 16 -10z m150 -10 c11 -6
24 -20 30 -33 10 -20 10 -20 -3 -5 -8 10 -27 24 -43 33 -16 8 -23 15 -16 15 7
0 22 -5 32 -10z m1866 -46 c-3 -8 -10 -13 -16 -9 -6 4 -5 13 3 26 13 21 23 8
13 -17z m-1949 -19 c0 -8 -4 -15 -9 -15 -10 0 -11 14 -1 23 9 10 10 9 10 -8z
m127 -6 c14 -11 26 -16 26 -10 0 6 5 11 10 11 6 0 10 -8 10 -19 0 -13 -7 -18
-25 -18 -18 0 -25 5 -25 19 0 10 -4 17 -9 14 -5 -3 -14 1 -21 9 -18 22 3 18
34 -6z m1796 -9 c0 -5 -7 -10 -16 -10 -8 0 -12 5 -9 10 3 6 10 10 16 10 5 0 9
-4 9 -10z m-1730 -40 c0 -5 -5 -10 -11 -10 -5 0 -7 5 -4 10 3 6 8 10 11 10 2
0 4 -4 4 -10z"/>
<path d="M2925 5500 c-3 -5 -1 -10 4 -10 6 0 11 5 11 10 0 6 -2 10 -4 10 -3 0
-8 -4 -11 -10z"/>
<path d="M2880 5425 c0 -20 17 -28 23 -11 3 8 -1 17 -9 20 -8 3 -14 -1 -14 -9z"/>
<path d="M3614 5418 c3 -7 9 -21 12 -30 4 -10 10 -18 15 -18 17 0 16 16 -1 38
-20 24 -35 30 -26 10z"/>
<path d="M3570 5410 c0 -5 5 -10 11 -10 5 0 7 5 4 10 -3 6 -8 10 -11 10 -2 0
-4 -4 -4 -10z"/>
<path d="M2862 5371 c-11 -7 -11 -9 0 -14 9 -3 15 1 15 9 0 8 -1 14 -1 14 -1
0 -7 -4 -14 -9z"/>
<path d="M3730 5333 c0 -4 5 -15 10 -23 8 -13 10 -13 10 2 0 9 -4 20 -10 23
-5 3 -10 3 -10 -2z"/>
<path d="M2766 5133 c-6 -14 -5 -15 5 -6 7 7 10 15 7 18 -3 3 -9 -2 -12 -12z"/>
<path d="M3813 5135 c-8 -9 -9 -16 -3 -20 6 -3 13 1 16 10 9 21 2 26 -13 10z"/>
<path d="M2635 5050 c3 -5 8 -10 11 -10 2 0 4 5 4 10 0 6 -5 10 -11 10 -5 0
-7 -4 -4 -10z"/>
<path d="M1173 4150 c-13 -5 -23 -11 -23 -14 0 -7 40 6 46 15 6 10 6 10 -23
-1z"/>
<path d="M1204 4123 c-12 -2 -29 -12 -38 -22 -15 -17 -14 -18 14 -18 21 0 29
4 26 13 -3 8 0 11 8 8 7 -3 13 2 13 11 0 8 -1 14 -1 14 -1 -1 -11 -4 -22 -6z"/>
<path d="M1215 4070 c-3 -5 -1 -10 4 -10 6 0 11 5 11 10 0 6 -2 10 -4 10 -3 0
-8 -4 -11 -10z"/>
<path d="M2271 5304 c0 -11 3 -14 6 -6 3 7 2 16 -1 19 -3 4 -6 -2 -5 -13z"/>
<path d="M2250 5245 c0 -8 2 -15 4 -15 2 0 6 7 10 15 3 8 1 15 -4 15 -6 0 -10
-7 -10 -15z"/>
<path d="M2330 5215 c-10 -12 -10 -15 4 -15 9 0 16 7 16 15 0 8 -2 15 -4 15
-2 0 -9 -7 -16 -15z"/>
<path d="M2330 5129 c0 -5 5 -7 10 -4 6 3 10 8 10 11 0 2 -4 4 -10 4 -5 0 -10
-5 -10 -11z"/>
<path d="M4355 4020 c3 -5 8 -10 11 -10 2 0 4 5 4 10 0 6 -5 10 -11 10 -5 0
-7 -4 -4 -10z"/>
<path d="M4140 3878 c0 -9 5 -20 10 -23 13 -8 13 5 0 25 -8 13 -10 13 -10 -2z"/>
<path d="M2300 3530 c-8 -5 -12 -10 -7 -10 9 0 -48 -103 -83 -150 -43 -57 -44
-68 -2 -21 40 44 115 168 110 182 -2 5 -10 4 -18 -1z"/>
<path d="M3290 3479 c0 -10 40 -32 47 -26 3 3 1 11 -4 19 -9 15 -43 20 -43 7z"/>
<path d="M4290 3380 c0 -5 4 -10 9 -10 6 0 13 5 16 10 3 6 -1 10 -9 10 -9 0
-16 -4 -16 -10z"/>
<path d="M4236 3332 c-3 -5 1 -9 9 -9 8 0 12 4 9 9 -3 4 -7 8 -9 8 -2 0 -6 -4
-9 -8z"/>
<path d="M4187 3288 c-4 -12 -4 -24 -2 -27 3 -2 5 1 5 7 0 6 6 9 14 6 10 -4
14 0 12 12 -4 27 -23 28 -29 2z"/>
<path d="M4199 3142 c-1 -4 -1 -11 0 -16 1 -5 -4 -13 -11 -17 -7 -5 -8 -9 -2
-9 6 0 19 8 28 19 15 16 15 19 1 24 -8 4 -16 3 -16 -1z"/>
<path d="M2830 2989 c0 -5 5 -7 10 -4 6 3 10 8 10 11 0 2 -4 4 -10 4 -5 0 -10
-5 -10 -11z"/>
<path d="M4130 2740 c-8 -5 -12 -12 -9 -15 4 -3 12 1 19 10 14 17 11 19 -10 5z"/>
<path d="M3476 2620 c-19 -6 -19 -7 2 -12 12 -4 24 -2 27 2 8 13 -8 18 -29 10z"/>
<path d="M3286 2550 c3 -14 13 -32 20 -41 18 -20 18 -35 0 -20 -11 9 -12 6 -8
-14 3 -18 9 -24 19 -21 8 3 21 6 29 6 12 0 12 4 2 22 -7 12 -19 29 -25 37 -48
61 -45 58 -37 31z"/>
<path d="M3400 2541 c0 -15 29 -46 36 -38 4 4 1 7 -7 7 -12 0 -12 2 1 10 9 6
19 5 29 -3 12 -10 13 -9 4 7 -10 18 -63 33 -63 17z"/>
<path d="M3360 2519 c7 -11 14 -19 16 -16 7 7 -7 37 -17 37 -6 0 -5 -9 1 -21z"/>
<path d="M2590 2510 c-8 -5 -12 -11 -9 -14 2 -3 11 -1 19 4 8 5 12 11 9 14 -2
3 -11 1 -19 -4z"/>
<path d="M3576 2507 c3 -10 9 -15 12 -12 3 3 0 11 -7 18 -10 9 -11 8 -5 -6z"/>
<path d="M3736 2488 c3 -10 10 -18 15 -18 5 0 9 -6 9 -14 0 -8 13 -17 30 -21
16 -4 32 -11 35 -16 4 -5 16 -14 28 -19 14 -7 9 1 -13 20 -19 16 -40 30 -48
30 -7 0 -24 12 -38 28 -14 16 -22 20 -18 10z"/>
<path d="M2601 2477 c0 -10 -5 -15 -11 -12 -14 9 -12 -5 10 -50 10 -22 16 -43
14 -46 -2 -4 3 -9 11 -13 21 -8 29 13 12 32 -21 25 -27 48 -14 61 8 8 8 11 0
11 -6 0 -14 8 -16 18 -4 16 -5 16 -6 -1z"/>
<path d="M2668 2462 c3 -9 1 -13 -5 -9 -5 3 -10 0 -10 -8 0 -13 4 -12 19 2 22
19 23 30 4 30 -8 0 -12 -6 -8 -15z"/>
<path d="M2870 2469 c0 -5 5 -7 10 -4 6 3 10 8 10 11 0 2 -4 4 -10 4 -5 0 -10
-5 -10 -11z"/>
<path d="M2481 2432 c-1 -27 3 -41 9 -37 6 3 10 -3 10 -13 0 -11 6 -32 14 -47
13 -25 15 -25 27 -8 14 19 39 29 39 16 0 -15 -17 -34 -27 -31 -15 4 -17 -3 -9
-29 4 -13 13 -20 21 -17 8 3 11 12 9 19 -9 23 14 54 36 48 11 -3 20 -10 20
-15 0 -6 7 -5 15 2 11 9 18 10 28 1 8 -6 17 -8 20 -4 6 6 10 -12 10 -42 0 -6
8 -12 18 -12 11 -1 19 3 19 8 0 6 -4 8 -9 5 -16 -10 -20 21 -6 41 8 10 15 13
15 7 0 -5 -5 -15 -12 -22 -9 -9 -8 -12 4 -12 20 0 25 7 32 45 5 29 -9 59 -24
50 -4 -3 -11 2 -14 11 -3 8 -10 12 -16 9 -14 -9 -12 9 3 24 10 10 9 11 -5 6
-10 -4 -18 -14 -18 -22 0 -8 -4 -12 -9 -9 -5 3 -12 -1 -15 -10 -9 -24 -7 -28
9 -14 12 10 15 10 15 -4 0 -9 -8 -16 -20 -16 -11 0 -20 -5 -20 -10 0 -6 -11
-9 -24 -8 -25 4 -59 32 -49 42 4 3 -1 6 -11 6 -9 0 -19 -7 -22 -15 -6 -16 -24
-11 -24 6 0 6 5 7 10 4 6 -3 10 -2 10 4 0 5 3 18 7 28 6 17 6 17 -14 0 -21
-18 -35 -14 -26 9 3 8 0 14 -5 14 -6 0 -13 8 -15 18 -3 9 -5 -2 -6 -26z"/>
<path d="M3702 2448 c-9 -9 -7 -17 8 -33 11 -12 22 -36 23 -52 1 -17 5 -29 10
-26 12 7 8 26 -11 63 -11 19 -17 41 -15 48 6 15 0 15 -15 0z"/>
<path d="M2820 2411 c0 -15 29 -33 45 -27 8 3 12 12 9 21 -3 8 -10 12 -15 9
-5 -3 -6 -10 -3 -16 4 -7 2 -8 -5 -4 -6 4 -9 12 -6 17 4 5 -1 9 -9 9 -9 0 -16
-4 -16 -9z"/>
<path d="M2375 2399 c-4 -6 -5 -12 -2 -15 2 -3 7 2 10 11 7 17 1 20 -8 4z"/>
<path d="M2448 2393 c-10 -2 -18 -9 -18 -14 0 -14 16 -11 30 6 7 8 11 14 9 14
-2 -1 -12 -3 -21 -6z"/>
<path d="M2342 2360 c-8 -13 -8 -20 -2 -20 6 0 13 7 17 15 9 24 -1 27 -15 5z"/>
<path d="M2815 2370 c3 -5 8 -10 11 -10 2 0 4 5 4 10 0 6 -5 10 -11 10 -5 0
-7 -4 -4 -10z"/>
<path d="M2869 2358 c-1 -7 -1 -16 0 -20 2 -13 -17 -9 -22 5 -4 9 -6 9 -6 -1
-1 -16 26 -45 32 -35 12 21 16 63 7 63 -5 0 -11 -6 -11 -12z"/>
<path d="M2453 2319 c-3 -34 12 -69 27 -69 6 0 10 14 10 31 0 17 -4 28 -10 24
-5 -3 -10 1 -10 10 0 9 4 13 10 10 6 -3 7 1 4 9 -10 27 -29 18 -31 -15z"/>
<path d="M2245 2330 c-3 -5 -1 -10 4 -10 6 0 11 5 11 10 0 6 -2 10 -4 10 -3 0
-8 -4 -11 -10z"/>
<path d="M2386 2321 c-4 -6 -12 -9 -17 -6 -5 4 -9 2 -9 -2 0 -5 -10 -9 -22
-10 -12 -1 -28 -10 -37 -19 -15 -15 -14 -15 6 -5 12 6 30 11 40 11 16 -1 16
-2 2 -13 -9 -7 -19 -22 -23 -35 -5 -13 -12 -20 -19 -16 -9 5 -9 4 0 -6 9 -10
17 -9 42 3 30 15 30 14 43 -14 7 -16 16 -29 20 -29 5 0 8 -5 8 -11 0 -5 -6 -7
-12 -4 -7 4 -4 -1 7 -10 19 -15 20 -14 28 10 5 14 13 22 19 19 5 -3 4 3 -4 15
-14 23 -38 28 -38 9 0 -10 -2 -10 -9 0 -4 8 -7 33 -5 56 3 46 -8 77 -20 57z
m51 -143 c-3 -7 -5 -2 -5 12 0 14 2 19 5 13 2 -7 2 -19 0 -25z"/>
<path d="M3751 2321 c-14 -9 -7 -31 10 -31 6 0 7 5 3 11 -3 6 0 15 7 20 8 5
10 9 4 9 -5 0 -16 -4 -24 -9z"/>
<path d="M2500 2299 c0 -34 16 -57 22 -32 3 11 -1 28 -8 38 -13 18 -14 17 -14
-6z"/>
<path d="M2591 2304 c0 -11 3 -14 6 -6 3 7 2 16 -1 19 -3 4 -6 -2 -5 -13z"/>
<path d="M2622 2277 c2 -28 12 -35 24 -16 3 6 -1 18 -10 27 -15 15 -16 14 -14
-11z"/>
<path d="M2422 2270 c0 -14 2 -19 5 -12 2 6 2 18 0 25 -3 6 -5 1 -5 -13z"/>
<path d="M2125 2260 c-10 -11 -16 -22 -13 -25 3 -3 13 6 22 20 20 30 16 32 -9
5z"/>
<path d="M2306 2261 c-4 -7 -5 -15 -2 -18 9 -9 19 4 14 18 -4 11 -6 11 -12 0z"/>
<path d="M2273 2238 c-2 -18 0 -20 7 -8 12 18 13 30 2 30 -4 0 -9 -10 -9 -22z"/>
<path d="M2160 2211 c0 -6 5 -13 10 -16 6 -3 10 1 10 9 0 9 -4 16 -10 16 -5 0
-10 -4 -10 -9z"/>
<path d="M2366 2193 c-6 -14 -5 -15 5 -6 7 7 10 15 7 18 -3 3 -9 -2 -12 -12z"/>
<path d="M2099 2198 c-6 -11 -5 -48 1 -48 4 0 8 11 8 25 0 21 -5 32 -9 23z"/>
<path d="M2330 2182 c0 -12 4 -22 9 -22 10 0 9 26 -2 36 -4 4 -7 -2 -7 -14z"/>
<path d="M2045 2180 c-3 -5 -1 -10 4 -10 6 0 11 5 11 10 0 6 -2 10 -4 10 -3 0
-8 -4 -11 -10z"/>
<path d="M2380 2146 c0 -8 4 -17 9 -20 5 -4 7 3 4 14 -6 23 -13 26 -13 6z"/>
<path d="M1984 2132 c-6 -4 -14 -16 -18 -26 -7 -19 -6 -19 13 -2 19 17 19 17
14 -3 -8 -32 4 -25 16 9 10 31 0 40 -25 22z"/>
<path d="M2142 2100 c0 -14 2 -19 5 -12 2 6 2 18 0 25 -3 6 -5 1 -5 -13z"/>
<path d="M2060 2040 c0 -5 5 -10 10 -10 6 0 10 5 10 10 0 6 -4 10 -10 10 -5 0
-10 -4 -10 -10z"/>
<path d="M2090 2012 c0 -7 -6 -11 -12 -9 -15 2 -13 -56 2 -82 8 -12 9 -6 4 22
-4 24 -2 43 6 52 7 9 10 18 6 22 -3 3 -6 1 -6 -5z"/>
<path d="M1592 1845 c0 -16 2 -22 5 -12 2 9 2 23 0 30 -3 6 -5 -1 -5 -18z"/>
<path d="M3984 1839 c-4 -7 -3 -9 4 -5 5 3 12 0 15 -6 2 -7 7 -10 11 -7 4 3 0
12 -8 18 -11 9 -16 9 -22 0z"/>
<path d="M3930 1836 c0 -2 7 -7 16 -10 8 -3 12 -2 9 4 -6 10 -25 14 -25 6z"/>
<path d="M3901 1803 c7 -12 15 -20 18 -17 3 2 -3 12 -13 22 -17 16 -18 16 -5
-5z"/>
<path d="M3178 1753 c7 -3 16 -2 19 1 4 3 -2 6 -13 5 -11 0 -14 -3 -6 -6z"/>
<path d="M3820 1756 c0 -2 7 -9 15 -16 9 -7 15 -8 15 -2 0 5 -7 12 -15 16 -8
3 -15 4 -15 2z"/>
<path d="M3332 1736 c11 -12 -10 -46 -28 -46 -8 0 -13 4 -9 9 12 21 -14 19
-31 -2 -10 -12 -15 -19 -10 -15 9 8 56 -43 56 -61 0 -6 4 -11 10 -11 5 0 6 8
3 18 -6 15 -5 16 12 2 17 -14 18 -13 12 3 -4 10 -7 21 -7 23 0 3 -4 3 -9 0 -5
-3 -15 2 -22 11 -12 15 -12 16 4 10 11 -4 16 -3 12 3 -9 14 9 12 23 -2 9 -9
12 -6 12 14 0 14 -8 32 -17 39 -10 7 -15 10 -11 5z"/>
<path d="M3855 1653 c3 -45 5 -49 16 -31 7 12 6 24 -1 38 -14 27 -17 25 -15
-7z"/>
<path d="M3036 1654 c-9 -24 -7 -31 4 -14 5 8 10 11 11 5 0 -5 2 -21 3 -35 2
-14 0 -35 -5 -47 -5 -14 -4 -25 5 -32 13 -11 15 -4 17 41 0 12 6 15 17 11 14
-6 15 -4 5 9 -7 8 -10 18 -6 22 4 4 -5 18 -19 31 -22 20 -27 22 -32 9z"/>
<path d="M3216 1656 c3 -9 14 -18 25 -21 10 -4 19 -11 19 -16 0 -6 7 -3 16 6
9 9 13 19 10 23 -4 3 -11 0 -16 -8 -9 -14 -15 -6 -10 15 1 6 -2 7 -5 3 -4 -4
-16 -3 -26 3 -15 7 -17 6 -13 -5z"/>
<path d="M3140 1650 c0 -5 20 -29 45 -53 35 -35 45 -41 45 -26 0 10 -4 19 -10
19 -5 0 -9 4 -7 9 1 5 -15 21 -35 35 -21 14 -38 21 -38 16z"/>
<path d="M3106 1625 c4 -8 11 -15 16 -15 6 0 5 6 -2 15 -7 8 -14 15 -16 15 -2
0 -1 -7 2 -15z"/>
<path d="M1909 1603 c-13 -16 -12 -17 4 -4 9 7 17 15 17 17 0 8 -8 3 -21 -13z"/>
<path d="M3850 1589 c0 -5 5 -7 10 -4 6 3 10 8 10 11 0 2 -4 4 -10 4 -5 0 -10
-5 -10 -11z"/>
<path d="M3878 1576 c-3 -16 0 -27 10 -31 20 -7 35 8 30 31 -5 29 -35 29 -40
0z"/>
<path d="M2782 1560 c-16 -45 -15 -55 5 -39 9 8 14 9 10 3 -3 -6 0 -11 8 -11
8 0 12 4 10 8 -3 4 2 10 11 13 10 4 13 2 8 -7 -4 -7 -3 -8 2 -4 5 5 9 23 10
40 1 18 -1 26 -3 19 -4 -10 -8 -10 -19 -1 -11 9 -14 8 -15 -7 0 -18 -1 -18 -8
0 -7 18 -9 16 -19 -14z"/>
<path d="M2715 1570 c-3 -5 -1 -10 4 -10 6 0 11 5 11 10 0 6 -2 10 -4 10 -3 0
-8 -4 -11 -10z"/>
<path d="M2916 1565 c-3 -8 -1 -15 4 -15 6 0 10 7 10 15 0 8 -2 15 -4 15 -2 0
-6 -7 -10 -15z"/>
<path d="M2990 1554 c0 -8 5 -12 10 -9 6 3 10 10 10 16 0 5 -4 9 -10 9 -5 0
-10 -7 -10 -16z"/>
<path d="M2870 1541 c-7 -15 -7 -21 0 -21 12 0 25 28 17 36 -3 3 -10 -4 -17
-15z"/>
<path d="M2966 1551 c-4 -5 -3 -17 1 -27 4 -11 3 -15 -4 -11 -6 4 -13 1 -16
-7 -4 -10 2 -13 19 -12 13 0 26 7 29 14 3 7 1 11 -4 8 -11 -7 -23 22 -15 35 3
5 3 9 0 9 -3 0 -7 -4 -10 -9z"/>
<path d="M3938 1408 c9 -9 15 -9 24 0 9 9 7 12 -12 12 -19 0 -21 -3 -12 -12z"/>
<path d="M2082 1394 c-12 -8 -22 -11 -22 -6 0 5 -7 9 -15 9 -11 0 -12 -4 -4
-14 6 -7 9 -19 6 -26 -7 -18 18 -63 27 -48 4 6 2 11 -3 11 -16 0 -13 46 2 59
8 6 16 8 19 5 3 -2 8 2 11 11 8 19 7 19 -21 -1z"/>
<path d="M2136 1278 c5 -8 2 -9 -11 -4 -15 5 -16 4 -5 -9 16 -19 30 -19 30 -1
0 8 6 17 13 19 6 3 2 6 -11 6 -15 1 -21 -3 -16 -11z"/>
<path d="M3540 1226 c0 -2 7 -7 16 -10 8 -3 12 -2 9 4 -6 10 -25 14 -25 6z"/>
<path d="M3580 1216 c0 -9 40 -13 46 -5 3 5 -6 9 -20 9 -14 0 -26 -2 -26 -4z"/>
<path d="M3637 1173 c3 -7 8 -13 12 -13 8 0 37 19 31 21 -33 6 -47 4 -43 -8z"/>
<path d="M2233 1133 c-17 -6 -16 -20 0 -26 8 -3 14 3 14 14 1 10 1 19 0 18 -1
0 -8 -3 -14 -6z"/>
<path d="M3350 1120 c0 -9 39 -25 45 -18 2 2 -7 8 -21 15 -13 6 -24 7 -24 3z"/>
<path d="M3427 1085 c3 -8 9 -12 14 -9 12 7 11 11 -5 17 -10 4 -13 1 -9 -8z"/>
<path d="M3526 1064 c-5 -14 -4 -15 9 -4 17 14 19 20 6 20 -5 0 -12 -7 -15
-16z"/>
<path d="M2290 1021 c0 -5 5 -13 10 -16 6 -3 10 -2 10 4 0 5 -4 13 -10 16 -5
3 -10 2 -10 -4z"/>
<path d="M2517 899 c3 -10 9 -16 14 -13 13 8 11 21 -5 27 -10 4 -12 0 -9 -14z"/>
<path d="M2560 909 c0 -6 7 -17 15 -25 8 -9 15 -11 15 -5 0 5 -5 13 -10 16 -6
4 -8 11 -5 16 4 5 1 9 -4 9 -6 0 -11 -5 -11 -11z"/>
<path d="M3030 881 c-8 -16 -8 -26 0 -39 8 -11 10 -12 7 -2 -2 8 0 23 5 33 5
10 7 21 5 24 -3 2 -10 -5 -17 -16z"/>
<path d="M2465 830 c-3 -5 -2 -10 4 -10 5 0 13 5 16 10 3 6 2 10 -4 10 -5 0
-13 -4 -16 -10z"/>
<path d="M2950 831 c0 -6 4 -13 10 -16 6 -3 7 1 4 9 -7 18 -14 21 -14 7z"/>
<path d="M2913 768 c8 -13 13 -14 19 -5 12 19 9 26 -11 24 -15 -1 -17 -4 -8
-19z"/>
<path d="M2657 773 c-4 -3 -7 -13 -7 -22 1 -13 3 -13 11 2 11 19 8 33 -4 20z"/>
<path d="M3560 3765 c7 -8 16 -12 21 -9 13 8 1 24 -18 24 -13 0 -13 -3 -3 -15z"/>
<path d="M2097 3490 c-9 -11 -13 -20 -9 -20 4 0 15 9 25 20 9 11 13 20 9 20
-4 0 -15 -9 -25 -20z"/>
<path d="M1888 3493 c7 -3 16 -2 19 1 4 3 -2 6 -13 5 -11 0 -14 -3 -6 -6z"/>
<path d="M1695 3470 c-3 -6 1 -7 9 -4 18 7 21 14 7 14 -6 0 -13 -4 -16 -10z"/>
<path d="M1770 3469 c0 -5 5 -7 10 -4 6 3 10 8 10 11 0 2 -4 4 -10 4 -5 0 -10
-5 -10 -11z"/>
<path d="M2009 3423 c-13 -16 -12 -17 4 -4 9 7 17 15 17 17 0 8 -8 3 -21 -13z"/>
<path d="M4450 2431 c0 -5 5 -13 10 -16 6 -3 10 -2 10 4 0 5 -4 13 -10 16 -5
3 -10 2 -10 -4z"/>
<path d="M4531 2414 c0 -11 3 -14 6 -6 3 7 2 16 -1 19 -3 4 -6 -2 -5 -13z"/>
<path d="M4430 2414 c1 -5 11 -29 24 -53 17 -32 24 -40 29 -28 3 9 0 29 -8 44
-8 15 -15 24 -15 18 0 -5 -7 -1 -15 9 -8 11 -15 16 -15 10z"/>
<path d="M4482 2285 c6 -14 13 -24 14 -22 6 6 -9 47 -17 47 -5 0 -3 -11 3 -25z"/>
<path d="M4490 2091 c0 -6 4 -13 10 -16 6 -3 7 1 4 9 -7 18 -14 21 -14 7z"/>
<path d="M4485 2009 c-4 -6 -5 -12 -2 -15 2 -3 7 2 10 11 7 17 1 20 -8 4z"/>
<path d="M5063 560 c-32 -13 -29 -16 15 -17 20 0 31 2 24 4 -6 3 -10 9 -6 14
6 11 -4 11 -33 -1z"/>
<path d="M5271 484 c0 -11 3 -14 6 -6 3 7 2 16 -1 19 -3 4 -6 -2 -5 -13z"/>
<path d="M5367 434 c-4 -4 -7 -14 -7 -23 0 -11 3 -12 11 -4 6 6 10 16 7 23 -2
6 -7 8 -11 4z"/>
</g>
</svg>
